<svg width="295" height="78" viewBox="0 0 295 78" fill="none" xmlns="http://www.w3.org/2000/svg">
<g clip-path="url(#clip0_9_525)">
<path d="M3.02708 75.5986C2.25781 74.8114 1.65307 73.8789 1.24814 72.8554C0.843221 71.832 0.646235 70.7381 0.668686 69.6377C0.670352 66.4736 1.24582 63.336 2.36716 60.3772L16.9719 17.8937C18.0962 14.5048 19.7148 11.3005 21.7752 8.38444C23.5392 5.86953 25.809 3.75078 28.4393 2.16391C30.8382 0.738817 33.5788 -0.00894772 36.3691 0.000251527C37.5162 -0.0736251 38.6665 0.0794531 39.7543 0.450723C40.8422 0.821994 41.8461 1.40417 42.7086 2.16391C44.247 3.83076 45.0771 6.0303 45.0238 8.29789C45.0068 11.596 44.3986 14.8644 43.2279 17.9478L39.528 28.7012H28.2121L32.5394 16.0438C32.8 15.392 32.8894 14.6844 32.7991 13.9883C32.7642 13.755 32.642 13.5437 32.4572 13.3971C32.2724 13.2505 32.0389 13.1795 31.8038 13.1986C31.5059 13.2116 31.2144 13.2889 30.9492 13.4252C30.684 13.5616 30.4515 13.7536 30.2676 13.9883C29.7518 14.59 29.3619 15.2889 29.1208 16.0438L13.4343 61.7187C13.1675 62.3612 13.0742 63.0626 13.1638 63.7525C13.2013 63.9871 13.3281 64.1981 13.5177 64.3413C13.7072 64.4845 13.9449 64.5488 14.1808 64.5206C14.4783 64.5062 14.7694 64.4283 15.0343 64.2921C15.2993 64.1559 15.5321 63.9645 15.717 63.7309C16.2109 63.1449 16.5791 62.4637 16.7988 61.7295L21.8401 47.0707H33.1669L28.6232 60.4313C27.5416 63.6973 25.9694 66.7798 23.9605 69.5728C22.2189 72.0104 19.9855 74.0558 17.4046 75.577C14.9971 76.9911 12.2561 77.7379 9.46397 77.7406C7.12183 77.8877 4.81407 77.1197 3.02708 75.5986V75.5986Z" fill="black"/>
<path d="M3.02711 75.5988C2.25784 74.8117 1.6531 73.8791 1.24817 72.8557C0.843252 71.8322 0.646266 70.7384 0.668716 69.6379C0.670383 66.4738 1.24585 63.3362 2.36719 60.3775L16.9719 17.894C18.0963 14.5051 19.7148 11.3008 21.7752 8.38468C23.5392 5.86977 25.8091 3.75103 28.4393 2.16416C30.8383 0.739061 33.5788 -0.00870358 36.3691 0.000495666C37.5162 -0.073381 38.6666 0.0796973 39.7544 0.450968C40.8422 0.822238 41.8461 1.40441 42.7087 2.16416C44.247 3.83101 45.0771 6.03055 45.0238 8.29814C45.0068 11.5963 44.3986 14.8646 43.2279 17.9481L39.5281 28.7015H28.2121L32.5395 16.044C32.8001 15.3923 32.8894 14.6847 32.7991 13.9886C32.7642 13.7553 32.642 13.544 32.4572 13.3974C32.2725 13.2507 32.0389 13.1798 31.8038 13.1988C31.5059 13.2118 31.2144 13.2892 30.9492 13.4255C30.6841 13.5618 30.4515 13.7539 30.2676 13.9886C29.7518 14.5902 29.3619 15.2891 29.1209 16.044L13.4343 61.7189C13.1675 62.3615 13.0743 63.0628 13.1639 63.7528C13.2013 63.9874 13.3281 64.1984 13.5177 64.3416C13.7073 64.4847 13.9449 64.549 14.1808 64.5209C14.4784 64.5065 14.7694 64.4285 15.0344 64.2923C15.2993 64.1561 15.5321 63.9648 15.717 63.7311C16.2109 63.1452 16.5791 62.464 16.7988 61.7298L21.8401 47.071H33.1669L28.6232 60.4316C27.5417 63.6976 25.9694 66.78 23.9605 69.573C22.2189 72.0106 19.9856 74.056 17.4046 75.5772C14.9971 76.9913 12.2561 77.7382 9.464 77.7409C7.12186 77.8879 4.8141 77.12 3.02711 75.5988V75.5988Z" fill="black"/>
<path d="M55.8399 1.0813H73.3223L53.7412 76.7229H41.9492L47.5314 57.25L50.1278 48.5953L59.9833 14.496H59.9076L46.6552 48.5412L43.1176 57.8666L35.7395 76.6905H24.218L55.8399 1.0813ZM42.7173 46.8427H56.1969L51.6749 60.0519H38.1952L42.7173 46.8427Z" fill="black"/>
<path d="M82.5493 1.1355H104.9C109.804 1.1355 113.601 1.77378 116.292 3.05034C117.538 3.58199 118.634 4.41144 119.485 5.46585C120.336 6.52027 120.915 7.7674 121.171 9.09777C121.733 11.8673 121.236 15.5166 119.678 20.0459C118.443 23.9741 116.496 27.6413 113.933 30.8642C111.853 33.4418 109.176 35.4731 106.133 36.7818C102.878 38.0707 99.4295 38.8021 95.9316 38.9455L97.814 38.1125C100.892 38.2306 103.936 38.803 106.847 39.8109C107.656 40.0639 108.39 40.512 108.984 41.1158C109.578 41.7196 110.015 42.4604 110.255 43.2728C110.532 45.3774 110.24 47.5176 109.411 49.4717L99.9885 76.8095H81.5L90.8578 49.5582C91.2435 48.6548 91.396 47.6691 91.3014 46.6914C91.2179 46.3321 91.0392 46.0019 90.7841 45.7354C90.5291 45.4689 90.207 45.276 89.8517 45.1768C88.5965 44.8022 87.2873 44.6412 85.9787 44.7008L74.9441 76.8095H56.5529L82.5493 1.1355ZM96.2886 30.1718C98 28.1818 99.2619 25.846 99.9885 23.3238L100.821 20.9005C101.73 18.2609 101.95 16.3785 101.481 15.2534C101.005 14.1716 99.6206 13.5657 97.338 13.5549H96.6672L90.2303 32.2706H90.966C91.9499 32.3066 92.9307 32.1388 93.8467 31.7776C94.7627 31.4165 95.5941 30.8697 96.2886 30.1718V30.1718Z" fill="black"/>
<path d="M128.321 1.22241H154.285C159.968 1.22241 164.404 1.8643 167.592 3.14807C169 3.60635 170.278 4.39415 171.321 5.44598C172.363 6.49781 173.139 7.78327 173.585 9.19551C174.386 11.9578 174.007 15.6036 172.449 20.1328C171.201 24.1198 169.138 27.8039 166.391 30.9511C164.001 33.5862 161.004 35.5988 157.661 36.8146C153.886 38.1219 149.936 38.8513 145.944 38.9783L148.108 38.1345C151.667 38.2594 155.196 38.83 158.613 39.833C160.884 40.6443 162.269 41.8019 162.745 43.2948C163.221 44.7877 163.016 46.854 162.107 49.4829L152.695 76.8965H131.231L140.6 49.6452C140.991 48.7395 141.111 47.74 140.946 46.7675C140.808 46.3876 140.574 46.0498 140.267 45.7864C139.96 45.5231 139.59 45.3431 139.194 45.2638C137.715 44.8801 136.187 44.716 134.661 44.7769L123.648 76.8099H102.357L128.321 1.22241ZM145.847 30.2912C147.686 28.3583 149.03 26.0087 149.763 23.4432L150.596 21.0199C151.505 18.3803 151.656 16.4979 151.051 15.3728C150.445 14.2477 148.815 13.6815 146.161 13.6743H145.371L138.945 32.39H139.8C142.012 32.5037 144.181 31.7508 145.847 30.2912V30.2912Z" fill="black"/>
<path d="M166.686 75.792C163.419 74.3496 161.338 72.2183 160.444 69.3984C159.549 66.5784 159.802 63.1598 161.201 59.1426L174.962 19.1149C176.246 15.3104 178.433 11.8733 181.334 9.09713C184.453 6.17619 188.165 3.9622 192.217 2.60614C196.885 1.01211 201.792 0.232652 206.724 0.30184C212.112 0.30184 216.439 1.05912 219.706 2.57369C221.162 3.15413 222.481 4.0309 223.58 5.14832C224.679 6.26574 225.533 7.59942 226.089 9.06467C227.092 11.8774 226.915 15.2527 225.559 19.1906L211.787 59.2183C210.51 63.0821 208.342 66.5915 205.459 69.4633C202.447 72.3631 198.813 74.5385 194.835 75.8245C190.055 77.3559 185.054 78.087 180.036 77.9881C174.41 77.9881 169.96 77.2561 166.686 75.792ZM187.241 64.0325C187.956 63.5094 188.489 62.7755 188.766 61.9337L204.42 16.3887C204.57 16.0564 204.637 15.6925 204.614 15.3286C204.591 14.9647 204.48 14.6119 204.29 14.3007C204.034 14.0024 203.709 13.7715 203.343 13.6281C202.977 13.4848 202.582 13.4334 202.191 13.4785C201.228 13.4416 200.279 13.7188 199.487 14.2683C198.765 14.8124 198.231 15.5691 197.961 16.4319L182.307 61.977C182.152 62.3095 182.078 62.6741 182.091 63.0409C182.104 63.4077 182.204 63.7661 182.383 64.0866C182.653 64.3836 182.991 64.6106 183.368 64.7482C183.744 64.8858 184.149 64.9297 184.547 64.8763C185.516 64.8975 186.466 64.6012 187.251 64.0325H187.241Z" fill="black"/>
<path d="M246.244 15.1452H229.476L234.225 1.40601L294.927 1.51419L290.21 15.221H273.441L252.205 77.08H225.019L246.244 15.1452Z" fill="black"/>
</g>
<defs>
<clipPath id="clip0_9_525">
<rect width="294.29" height="78" fill="white" transform="translate(0.666992)"/>
</clipPath>
</defs>
</svg>
