<svg width="216" height="47" viewBox="0 0 216 47" fill="none" xmlns="http://www.w3.org/2000/svg">
<path d="M65.8532 20.6339H59.9384V3.17937H65.9725C67.7054 3.17937 69.1941 3.5288 70.4384 4.22766C71.6884 4.92084 72.6486 5.918 73.3191 7.21914C73.9895 8.52027 74.3248 10.0771 74.3248 11.8896C74.3248 13.7078 73.9867 15.2703 73.3105 16.5771C72.6401 17.8839 71.6713 18.8868 70.4043 19.5856C69.1429 20.2845 67.6259 20.6339 65.8532 20.6339ZM63.1003 17.8981H65.6998C66.9157 17.8981 67.9299 17.6765 68.7424 17.2333C69.5549 16.7845 70.1657 16.1169 70.5748 15.2305C70.9838 14.3385 71.1884 13.2248 71.1884 11.8896C71.1884 10.5544 70.9838 9.44641 70.5748 8.56573C70.1657 7.67937 69.5605 7.01743 68.7594 6.57993C67.964 6.13675 66.9753 5.91516 65.7935 5.91516H63.1003V17.8981ZM82.9881 20.8896C81.6756 20.8896 80.5421 20.6169 79.5875 20.0714C78.6387 19.5203 77.9086 18.7419 77.3972 17.7362C76.8858 16.7248 76.6301 15.5345 76.6301 14.1652C76.6301 12.8186 76.8858 11.6368 77.3972 10.6197C77.9142 9.59698 78.6358 8.80152 79.562 8.23334C80.4881 7.65948 81.5762 7.37255 82.8262 7.37255C83.633 7.37255 84.3944 7.50323 85.1103 7.76459C85.8319 8.02027 86.4682 8.418 87.0194 8.95777C87.5762 9.49755 88.0137 10.185 88.3319 11.0203C88.65 11.8498 88.8091 12.8385 88.8091 13.9862V14.9322H78.079V12.8527H85.8517C85.8461 12.2618 85.7182 11.7362 85.4682 11.276C85.2182 10.81 84.8688 10.4436 84.4199 10.1765C83.9767 9.90948 83.4597 9.77596 82.8688 9.77596C82.2381 9.77596 81.6841 9.92937 81.2069 10.2362C80.7296 10.5373 80.3574 10.935 80.0904 11.4294C79.829 11.918 79.6955 12.4549 79.6898 13.0402V14.8555C79.6898 15.6169 79.829 16.2703 80.1074 16.8157C80.3858 17.3555 80.775 17.7703 81.275 18.06C81.775 18.3441 82.3603 18.4862 83.0307 18.4862C83.4796 18.4862 83.8858 18.4237 84.2495 18.2987C84.6131 18.168 84.9284 17.9777 85.1955 17.7277C85.4625 17.4777 85.6642 17.168 85.8006 16.7987L88.6813 17.1225C88.4995 17.8839 88.1529 18.5487 87.6415 19.1169C87.1358 19.6794 86.4881 20.1169 85.6983 20.4294C84.9086 20.7362 84.0051 20.8896 82.9881 20.8896ZM97.1294 20.8896C95.8226 20.8896 94.7005 20.6027 93.763 20.0288C92.8311 19.4549 92.1124 18.6623 91.6067 17.651C91.1067 16.6339 90.8567 15.4635 90.8567 14.1396C90.8567 12.81 91.1124 11.6368 91.6238 10.6197C92.1351 9.59698 92.8567 8.80152 93.7885 8.23334C94.726 7.65948 95.834 7.37255 97.1124 7.37255C98.1749 7.37255 99.1152 7.56857 99.9334 7.96062C100.757 8.34698 101.414 8.89527 101.902 9.6055C102.391 10.31 102.669 11.1339 102.737 12.0771H99.7885C99.6692 11.4464 99.3851 10.9208 98.9363 10.5004C98.4931 10.0743 97.8993 9.86118 97.155 9.86118C96.5243 9.86118 95.9703 10.0316 95.4931 10.3725C95.0158 10.7078 94.6436 11.1907 94.3766 11.8214C94.1152 12.4521 93.9846 13.2078 93.9846 14.0885C93.9846 14.9805 94.1152 15.7475 94.3766 16.3896C94.638 17.026 95.0044 17.5174 95.476 17.864C95.9533 18.2049 96.513 18.3754 97.155 18.3754C97.6096 18.3754 98.0158 18.2902 98.3738 18.1197C98.7374 17.9436 99.0414 17.6907 99.2857 17.3612C99.53 17.0316 99.6976 16.6311 99.7885 16.1595H102.737C102.664 17.0856 102.391 17.9066 101.919 18.6225C101.448 19.3328 100.806 19.8896 99.9931 20.293C99.1806 20.6907 98.226 20.8896 97.1294 20.8896ZM111.066 20.8896C109.754 20.8896 108.62 20.6169 107.666 20.0714C106.717 19.5203 105.987 18.7419 105.475 17.7362C104.964 16.7248 104.708 15.5345 104.708 14.1652C104.708 12.8186 104.964 11.6368 105.475 10.6197C105.992 9.59698 106.714 8.80152 107.64 8.23334C108.566 7.65948 109.654 7.37255 110.904 7.37255C111.711 7.37255 112.472 7.50323 113.188 7.76459C113.91 8.02027 114.546 8.418 115.097 8.95777C115.654 9.49755 116.092 10.185 116.41 11.0203C116.728 11.8498 116.887 12.8385 116.887 13.9862V14.9322H106.157V12.8527H113.93C113.924 12.2618 113.796 11.7362 113.546 11.276C113.296 10.81 112.947 10.4436 112.498 10.1765C112.055 9.90948 111.538 9.77596 110.947 9.77596C110.316 9.77596 109.762 9.92937 109.285 10.2362C108.808 10.5373 108.436 10.935 108.169 11.4294C107.907 11.918 107.774 12.4549 107.768 13.0402V14.8555C107.768 15.6169 107.907 16.2703 108.186 16.8157C108.464 17.3555 108.853 17.7703 109.353 18.06C109.853 18.3441 110.438 18.4862 111.109 18.4862C111.558 18.4862 111.964 18.4237 112.328 18.2987C112.691 18.168 113.007 17.9777 113.274 17.7277C113.541 17.4777 113.742 17.168 113.879 16.7987L116.759 17.1225C116.578 17.8839 116.231 18.5487 115.72 19.1169C115.214 19.6794 114.566 20.1169 113.776 20.4294C112.987 20.7362 112.083 20.8896 111.066 20.8896ZM122.583 12.9635V20.6339H119.497V7.543H122.446V9.76743H122.6C122.901 9.03448 123.381 8.45209 124.04 8.02027C124.705 7.58846 125.526 7.37255 126.503 7.37255C127.406 7.37255 128.193 7.56573 128.864 7.95209C129.54 8.33846 130.063 8.89812 130.432 9.63107C130.807 10.364 130.992 11.2532 130.986 12.2987V20.6339H127.901V12.776C127.901 11.901 127.673 11.2163 127.219 10.722C126.77 10.2277 126.148 9.9805 125.352 9.9805C124.813 9.9805 124.333 10.0998 123.912 10.3385C123.497 10.5714 123.171 10.9095 122.932 11.3527C122.699 11.7958 122.583 12.3328 122.583 12.9635ZM140.659 7.543V9.92937H133.134V7.543H140.659ZM134.992 4.40664H138.077V16.6964C138.077 17.1112 138.139 17.4294 138.264 17.651C138.395 17.8669 138.566 18.0146 138.776 18.0941C138.986 18.1737 139.219 18.2135 139.475 18.2135C139.668 18.2135 139.844 18.1993 140.003 18.1708C140.168 18.1424 140.293 18.1169 140.378 18.0941L140.898 20.5061C140.733 20.5629 140.497 20.6254 140.191 20.6936C139.889 20.7618 139.52 20.8015 139.083 20.8129C138.31 20.8356 137.614 20.7191 136.994 20.4635C136.375 20.2021 135.884 19.7987 135.52 19.2532C135.162 18.7078 134.986 18.026 134.992 17.2078V4.40664ZM143.24 20.6339V7.543H146.231V9.72482H146.367C146.606 8.96914 147.015 8.38675 147.595 7.97766C148.18 7.56289 148.847 7.3555 149.597 7.3555C149.768 7.3555 149.958 7.36402 150.169 7.38107C150.384 7.39243 150.563 7.41232 150.705 7.44073V10.2788C150.575 10.2333 150.367 10.1936 150.083 10.1595C149.805 10.1197 149.535 10.0998 149.274 10.0998C148.711 10.0998 148.205 10.222 147.757 10.4663C147.313 10.7049 146.964 11.0373 146.708 11.4635C146.453 11.8896 146.325 12.3811 146.325 12.9379V20.6339H143.24ZM156.288 20.8981C155.458 20.8981 154.711 20.7504 154.046 20.4549C153.387 20.1538 152.865 19.7106 152.478 19.1254C152.097 18.5402 151.907 17.8186 151.907 16.9606C151.907 16.222 152.044 15.6112 152.316 15.1282C152.589 14.6453 152.961 14.2589 153.433 13.9691C153.904 13.6794 154.436 13.4606 155.026 13.3129C155.623 13.1595 156.24 13.0487 156.876 12.9805C157.643 12.901 158.265 12.8299 158.742 12.7674C159.22 12.6993 159.566 12.597 159.782 12.4606C160.004 12.3186 160.115 12.0998 160.115 11.8044V11.7532C160.115 11.1112 159.924 10.614 159.544 10.2618C159.163 9.90948 158.615 9.73334 157.899 9.73334C157.143 9.73334 156.544 9.89812 156.1 10.2277C155.663 10.5572 155.367 10.9464 155.214 11.3953L152.333 10.9862C152.561 10.1907 152.936 9.52596 153.458 8.99187C153.981 8.45209 154.62 8.04868 155.376 7.78164C156.132 7.50891 156.967 7.37255 157.882 7.37255C158.512 7.37255 159.14 7.44641 159.765 7.59414C160.39 7.74187 160.961 7.98618 161.478 8.32709C161.995 8.66232 162.41 9.11971 162.722 9.69925C163.041 10.2788 163.2 11.0032 163.2 11.8725V20.6339H160.234V18.8356H160.132C159.944 19.1993 159.68 19.5402 159.339 19.8583C159.004 20.1708 158.58 20.4237 158.069 20.6169C157.563 20.8044 156.97 20.8981 156.288 20.8981ZM157.089 18.6311C157.708 18.6311 158.245 18.5089 158.7 18.2646C159.154 18.0146 159.504 17.685 159.748 17.276C159.998 16.8669 160.123 16.4208 160.123 15.9379V14.3953C160.026 14.4748 159.862 14.5487 159.629 14.6169C159.401 14.685 159.146 14.7447 158.862 14.7958C158.578 14.847 158.296 14.8924 158.018 14.9322C157.74 14.972 157.498 15.0061 157.294 15.0345C156.833 15.097 156.421 15.1993 156.058 15.3413C155.694 15.4833 155.407 15.6822 155.197 15.9379C154.987 16.1879 154.882 16.5118 154.882 16.9095C154.882 17.4777 155.089 17.9066 155.504 18.1964C155.919 18.4862 156.447 18.6311 157.089 18.6311ZM169.387 3.17937V20.6339H166.302V3.17937H169.387ZM176.327 20.8981C175.497 20.8981 174.75 20.7504 174.085 20.4549C173.426 20.1538 172.904 19.7106 172.517 19.1254C172.137 18.5402 171.946 17.8186 171.946 16.9606C171.946 16.222 172.083 15.6112 172.355 15.1282C172.628 14.6453 173 14.2589 173.472 13.9691C173.943 13.6794 174.475 13.4606 175.066 13.3129C175.662 13.1595 176.279 13.0487 176.915 12.9805C177.682 12.901 178.304 12.8299 178.781 12.7674C179.259 12.6993 179.605 12.597 179.821 12.4606C180.043 12.3186 180.154 12.0998 180.154 11.8044V11.7532C180.154 11.1112 179.963 10.614 179.583 10.2618C179.202 9.90948 178.654 9.73334 177.938 9.73334C177.182 9.73334 176.583 9.89812 176.139 10.2277C175.702 10.5572 175.406 10.9464 175.253 11.3953L172.372 10.9862C172.6 10.1907 172.975 9.52596 173.497 8.99187C174.02 8.45209 174.659 8.04868 175.415 7.78164C176.171 7.50891 177.006 7.37255 177.921 7.37255C178.551 7.37255 179.179 7.44641 179.804 7.59414C180.429 7.74187 181 7.98618 181.517 8.32709C182.034 8.66232 182.449 9.11971 182.762 9.69925C183.08 10.2788 183.239 11.0032 183.239 11.8725V20.6339H180.273V18.8356H180.171C179.983 19.1993 179.719 19.5402 179.378 19.8583C179.043 20.1708 178.619 20.4237 178.108 20.6169C177.602 20.8044 177.009 20.8981 176.327 20.8981ZM177.128 18.6311C177.747 18.6311 178.284 18.5089 178.739 18.2646C179.193 18.0146 179.543 17.685 179.787 17.276C180.037 16.8669 180.162 16.4208 180.162 15.9379V14.3953C180.066 14.4748 179.901 14.5487 179.668 14.6169C179.441 14.685 179.185 14.7447 178.901 14.7958C178.617 14.847 178.335 14.8924 178.057 14.9322C177.779 14.972 177.537 15.0061 177.333 15.0345C176.872 15.097 176.46 15.1993 176.097 15.3413C175.733 15.4833 175.446 15.6822 175.236 15.9379C175.026 16.1879 174.921 16.5118 174.921 16.9095C174.921 17.4777 175.128 17.9066 175.543 18.1964C175.958 18.4862 176.486 18.6311 177.128 18.6311ZM189.426 12.9635V20.6339H186.341V7.543H189.29V9.76743H189.443C189.744 9.03448 190.225 8.45209 190.884 8.02027C191.548 7.58846 192.369 7.37255 193.347 7.37255C194.25 7.37255 195.037 7.56573 195.708 7.95209C196.384 8.33846 196.906 8.89812 197.276 9.63107C197.651 10.364 197.835 11.2532 197.83 12.2987V20.6339H194.744V12.776C194.744 11.901 194.517 11.2163 194.063 10.722C193.614 10.2277 192.992 9.9805 192.196 9.9805C191.656 9.9805 191.176 10.0998 190.756 10.3385C190.341 10.5714 190.014 10.9095 189.776 11.3527C189.543 11.7958 189.426 12.3328 189.426 12.9635ZM205.824 20.864C204.796 20.864 203.875 20.5998 203.063 20.0714C202.25 19.543 201.608 18.776 201.137 17.7703C200.665 16.7646 200.429 15.543 200.429 14.1055C200.429 12.651 200.668 11.4237 201.145 10.4237C201.628 9.418 202.279 8.65948 203.097 8.14812C203.915 7.63107 204.827 7.37255 205.833 7.37255C206.6 7.37255 207.23 7.50323 207.725 7.76459C208.219 8.02027 208.611 8.32993 208.901 8.69357C209.191 9.05152 209.415 9.38959 209.574 9.70777H209.702V3.17937H212.796V20.6339H209.762V18.5714H209.574C209.415 18.8896 209.185 19.2277 208.884 19.5856C208.583 19.9379 208.185 20.239 207.691 20.489C207.196 20.739 206.574 20.864 205.824 20.864ZM206.685 18.3328C207.338 18.3328 207.895 18.1566 208.355 17.8044C208.816 17.4464 209.165 16.9493 209.404 16.3129C209.642 15.6765 209.762 14.935 209.762 14.0885C209.762 13.2419 209.642 12.5061 209.404 11.8811C209.171 11.2561 208.824 10.7703 208.364 10.4237C207.909 10.0771 207.35 9.9038 206.685 9.9038C205.997 9.9038 205.423 10.0828 204.963 10.4407C204.503 10.7987 204.156 11.293 203.923 11.9237C203.691 12.5544 203.574 13.276 203.574 14.0885C203.574 14.9066 203.691 15.6368 203.923 16.2788C204.162 16.9152 204.512 17.418 204.972 17.7873C205.438 18.151 206.009 18.3328 206.685 18.3328ZM59.9384 43.6339V26.1794H71.1202V28.8299H63.1003V33.5686H70.3532V36.2191H63.1003V43.6339H59.9384ZM78.6138 43.8896C77.3354 43.8896 76.2275 43.6083 75.29 43.0458C74.3525 42.4833 73.6252 41.6964 73.1081 40.685C72.5968 39.6737 72.3411 38.4919 72.3411 37.1396C72.3411 35.7873 72.5968 34.6027 73.1081 33.5856C73.6252 32.5686 74.3525 31.7788 75.29 31.2163C76.2275 30.6538 77.3354 30.3725 78.6138 30.3725C79.8922 30.3725 81.0002 30.6538 81.9377 31.2163C82.8752 31.7788 83.5996 32.5686 84.111 33.5856C84.628 34.6027 84.8865 35.7873 84.8865 37.1396C84.8865 38.4919 84.628 39.6737 84.111 40.685C83.5996 41.6964 82.8752 42.4833 81.9377 43.0458C81.0002 43.6083 79.8922 43.8896 78.6138 43.8896ZM78.6309 41.418C79.324 41.418 79.9036 41.2277 80.3695 40.847C80.8354 40.4606 81.182 39.9436 81.4093 39.2958C81.6422 38.6481 81.7587 37.9265 81.7587 37.1311C81.7587 36.3299 81.6422 35.6055 81.4093 34.9578C81.182 34.3044 80.8354 33.7845 80.3695 33.3981C79.9036 33.0118 79.324 32.8186 78.6309 32.8186C77.9206 32.8186 77.3297 33.0118 76.8581 33.3981C76.3922 33.7845 76.0428 34.3044 75.8098 34.9578C75.5826 35.6055 75.4689 36.3299 75.4689 37.1311C75.4689 37.9265 75.5826 38.6481 75.8098 39.2958C76.0428 39.9436 76.3922 40.4606 76.8581 40.847C77.3297 41.2277 77.9206 41.418 78.6309 41.418ZM95.8489 38.1282V30.543H98.9341V43.6339H95.9426V41.3072H95.8063C95.5108 42.0402 95.025 42.6396 94.3489 43.1055C93.6784 43.5714 92.8517 43.8044 91.8688 43.8044C91.0108 43.8044 90.2523 43.614 89.5932 43.2333C88.9398 42.847 88.4284 42.2873 88.0591 41.5544C87.6898 40.8157 87.5051 39.9237 87.5051 38.8782V30.543H90.5904V38.401C90.5904 39.2305 90.8176 39.8896 91.2722 40.3782C91.7267 40.8669 92.3233 41.1112 93.062 41.1112C93.5165 41.1112 93.9569 41.0004 94.383 40.7788C94.8091 40.5572 95.1586 40.2277 95.4313 39.7902C95.7097 39.347 95.8489 38.793 95.8489 38.1282ZM105.192 35.9635V43.6339H102.107V30.543H105.056V32.7674H105.209C105.51 32.0345 105.99 31.4521 106.649 31.0203C107.314 30.5885 108.135 30.3725 109.112 30.3725C110.016 30.3725 110.803 30.5657 111.473 30.9521C112.149 31.3385 112.672 31.8981 113.041 32.6311C113.416 33.364 113.601 34.2532 113.595 35.2987V43.6339H110.51V35.776C110.51 34.901 110.283 34.2163 109.828 33.722C109.379 33.2277 108.757 32.9805 107.962 32.9805C107.422 32.9805 106.942 33.0998 106.521 33.3385C106.107 33.5714 105.78 33.9095 105.541 34.3527C105.308 34.7958 105.192 35.3328 105.192 35.9635ZM121.59 43.864C120.561 43.864 119.641 43.5998 118.828 43.0714C118.016 42.543 117.374 41.776 116.902 40.7703C116.431 39.7646 116.195 38.543 116.195 37.1055C116.195 35.651 116.433 34.4237 116.911 33.4237C117.394 32.418 118.044 31.6595 118.862 31.1481C119.681 30.6311 120.593 30.3725 121.598 30.3725C122.365 30.3725 122.996 30.5032 123.49 30.7646C123.985 31.0203 124.377 31.3299 124.666 31.6936C124.956 32.0515 125.181 32.3896 125.34 32.7078H125.468V26.1794H128.561V43.6339H125.527V41.5714H125.34C125.181 41.8896 124.95 42.2277 124.649 42.5856C124.348 42.9379 123.95 43.239 123.456 43.489C122.962 43.739 122.34 43.864 121.59 43.864ZM122.45 41.3328C123.104 41.3328 123.661 41.1566 124.121 40.8044C124.581 40.4464 124.931 39.9493 125.169 39.3129C125.408 38.6765 125.527 37.935 125.527 37.0885C125.527 36.2419 125.408 35.5061 125.169 34.8811C124.936 34.2561 124.59 33.7703 124.129 33.4237C123.675 33.0771 123.115 32.9038 122.45 32.9038C121.763 32.9038 121.189 33.0828 120.729 33.4407C120.269 33.7987 119.922 34.293 119.689 34.9237C119.456 35.5544 119.34 36.276 119.34 37.0885C119.34 37.9066 119.456 38.6368 119.689 39.2788C119.928 39.9152 120.277 40.418 120.737 40.7873C121.203 41.151 121.774 41.3328 122.45 41.3328ZM135.616 43.8981C134.786 43.8981 134.039 43.7504 133.374 43.4549C132.715 43.1538 132.193 42.7106 131.806 42.1254C131.426 41.5402 131.235 40.8186 131.235 39.9606C131.235 39.222 131.372 38.6112 131.644 38.1282C131.917 37.6453 132.289 37.2589 132.761 36.9691C133.232 36.6794 133.764 36.4606 134.355 36.3129C134.951 36.1595 135.568 36.0487 136.204 35.9805C136.971 35.901 137.593 35.8299 138.07 35.7674C138.548 35.6993 138.894 35.597 139.11 35.4606C139.332 35.3186 139.443 35.0998 139.443 34.8044V34.7532C139.443 34.1112 139.252 33.614 138.872 33.2618C138.491 32.9095 137.943 32.7333 137.227 32.7333C136.471 32.7333 135.872 32.8981 135.428 33.2277C134.991 33.5572 134.695 33.9464 134.542 34.3953L131.661 33.9862C131.889 33.1907 132.264 32.526 132.786 31.9919C133.309 31.4521 133.948 31.0487 134.704 30.7816C135.46 30.5089 136.295 30.3725 137.21 30.3725C137.84 30.3725 138.468 30.4464 139.093 30.5941C139.718 30.7419 140.289 30.9862 140.806 31.3271C141.323 31.6623 141.738 32.1197 142.051 32.6993C142.369 33.2788 142.528 34.0032 142.528 34.8725V43.6339H139.562V41.8356H139.46C139.272 42.1993 139.008 42.5402 138.667 42.8583C138.332 43.1708 137.909 43.4237 137.397 43.6169C136.892 43.8044 136.298 43.8981 135.616 43.8981ZM136.417 41.6311C137.036 41.6311 137.573 41.5089 138.028 41.2646C138.482 41.0146 138.832 40.685 139.076 40.276C139.326 39.8669 139.451 39.4208 139.451 38.9379V37.3953C139.355 37.4748 139.19 37.5487 138.957 37.6169C138.73 37.685 138.474 37.7447 138.19 37.7958C137.906 37.847 137.624 37.8924 137.346 37.9322C137.068 37.972 136.826 38.0061 136.622 38.0345C136.161 38.097 135.749 38.1993 135.386 38.3413C135.022 38.4833 134.735 38.6822 134.525 38.9379C134.315 39.1879 134.21 39.5118 134.21 39.9095C134.21 40.4777 134.417 40.9066 134.832 41.1964C135.247 41.4862 135.775 41.6311 136.417 41.6311ZM152.167 30.543V32.9294H144.642V30.543H152.167ZM146.499 27.4066H149.585V39.6964C149.585 40.1112 149.647 40.4294 149.772 40.651C149.903 40.8669 150.073 41.0146 150.284 41.0941C150.494 41.1737 150.727 41.2135 150.982 41.2135C151.176 41.2135 151.352 41.1993 151.511 41.1708C151.676 41.1424 151.801 41.1169 151.886 41.0941L152.406 43.5061C152.241 43.5629 152.005 43.6254 151.698 43.6936C151.397 43.7618 151.028 43.8015 150.59 43.8129C149.818 43.8356 149.122 43.7191 148.502 43.4635C147.883 43.2021 147.392 42.7987 147.028 42.2532C146.67 41.7078 146.494 41.026 146.499 40.2078V27.4066ZM154.747 43.6339V30.543H157.833V43.6339H154.747ZM156.298 28.685C155.81 28.685 155.389 28.5231 155.037 28.1993C154.685 27.8697 154.509 27.4748 154.509 27.0146C154.509 26.5487 154.685 26.1538 155.037 25.8299C155.389 25.5004 155.81 25.3356 156.298 25.3356C156.793 25.3356 157.213 25.5004 157.56 25.8299C157.912 26.1538 158.088 26.5487 158.088 27.0146C158.088 27.4748 157.912 27.8697 157.56 28.1993C157.213 28.5231 156.793 28.685 156.298 28.685ZM166.715 43.8896C165.437 43.8896 164.329 43.6083 163.392 43.0458C162.454 42.4833 161.727 41.6964 161.21 40.685C160.698 39.6737 160.443 38.4919 160.443 37.1396C160.443 35.7873 160.698 34.6027 161.21 33.5856C161.727 32.5686 162.454 31.7788 163.392 31.2163C164.329 30.6538 165.437 30.3725 166.715 30.3725C167.994 30.3725 169.102 30.6538 170.039 31.2163C170.977 31.7788 171.701 32.5686 172.213 33.5856C172.73 34.6027 172.988 35.7873 172.988 37.1396C172.988 38.4919 172.73 39.6737 172.213 40.685C171.701 41.6964 170.977 42.4833 170.039 43.0458C169.102 43.6083 167.994 43.8896 166.715 43.8896ZM166.732 41.418C167.426 41.418 168.005 41.2277 168.471 40.847C168.937 40.4606 169.284 39.9436 169.511 39.2958C169.744 38.6481 169.86 37.9265 169.86 37.1311C169.86 36.3299 169.744 35.6055 169.511 34.9578C169.284 34.3044 168.937 33.7845 168.471 33.3981C168.005 33.0118 167.426 32.8186 166.732 32.8186C166.022 32.8186 165.431 33.0118 164.96 33.3981C164.494 33.7845 164.144 34.3044 163.911 34.9578C163.684 35.6055 163.57 36.3299 163.57 37.1311C163.57 37.9265 163.684 38.6481 163.911 39.2958C164.144 39.9436 164.494 40.4606 164.96 40.847C165.431 41.2277 166.022 41.418 166.732 41.418ZM178.692 35.9635V43.6339H175.607V30.543H178.556V32.7674H178.709C179.01 32.0345 179.49 31.4521 180.149 31.0203C180.814 30.5885 181.635 30.3725 182.612 30.3725C183.516 30.3725 184.303 30.5657 184.973 30.9521C185.649 31.3385 186.172 31.8981 186.541 32.6311C186.916 33.364 187.101 34.2532 187.095 35.2987V43.6339H184.01V35.776C184.01 34.901 183.783 34.2163 183.328 33.722C182.879 33.2277 182.257 32.9805 181.462 32.9805C180.922 32.9805 180.442 33.0998 180.021 33.3385C179.607 33.5714 179.28 33.9095 179.041 34.3527C178.808 34.7958 178.692 35.3328 178.692 35.9635Z" fill="white"/>
<path fill-rule="evenodd" clip-rule="evenodd" d="M37.8995 41.4922C43.2032 37.2216 46.5969 30.6749 46.5969 23.3354C46.5969 10.4681 36.1658 0.0369873 23.2985 0.0369873C10.4311 0.0369873 0 10.4681 0 23.3354C0 26.4581 0.614331 29.4373 1.72873 32.1587L16.2166 14.5752L28.0202 28.6153L30.8779 25.1364L41.4391 37.934H39.2026L30.8779 27.9941V37.934H5.13976C6.19426 39.244 7.38761 40.4375 8.69745 41.4922H37.8995ZM11.0416 43.153C14.6022 45.3599 18.8015 46.6339 23.2985 46.6339C27.7954 46.6339 31.9948 45.3599 35.5553 43.153H11.0416ZM3.69857 35.9368C2.94378 34.7652 2.29116 33.5216 1.75331 32.2185H16.2166V17.3087L26.7777 29.9821L21.8655 35.9368H3.69857ZM36.5934 16.0041C36.5934 19.1949 34.0067 21.7816 30.8159 21.7816C27.625 21.7816 25.0383 19.1949 25.0383 16.0041C25.0383 12.8132 27.625 10.2265 30.8159 10.2265C34.0067 10.2265 36.5934 12.8132 36.5934 16.0041ZM16.2788 11.7175C17.8914 11.7175 19.1986 10.4102 19.1986 8.79764C19.1986 7.18505 17.8914 5.87779 16.2788 5.87779C14.6662 5.87779 13.3589 7.18505 13.3589 8.79764C13.3589 10.4102 14.6662 11.7175 16.2788 11.7175Z" fill="white"/>
</svg>
