<svg width="1047" height="188" viewBox="0 0 1047 188" fill="none" xmlns="http://www.w3.org/2000/svg">
<path d="M327.989 106.139L360.39 121.884C361.234 122.289 362.36 122.5 363.475 122.5C364.589 122.5 365.715 122.289 366.557 121.884L398.959 106.139C400.662 105.313 400.662 103.962 398.959 103.133L366.557 87.3881C365.715 86.9834 364.588 86.772 363.475 86.772C362.362 86.772 361.234 86.9834 360.39 87.3881L327.989 103.133C326.285 103.962 326.285 105.31 327.989 106.139Z" fill="white"/>
<path d="M398.959 122.269C398.959 122.269 393.041 119.398 392.257 119.012C391.472 118.625 391.26 118.646 390.436 119.031C389.612 119.416 366.538 130.632 366.538 130.632C365.565 131.054 364.514 131.265 363.455 131.25C362.344 131.25 361.214 131.037 360.372 130.632C360.372 130.632 337.91 119.73 336.856 119.205C335.715 118.651 335.387 118.651 334.348 119.147L327.946 122.249C326.242 123.075 326.242 124.428 327.946 125.255L360.353 141C361.195 141.405 362.322 141.616 363.435 141.616C364.548 141.616 365.676 141.405 366.519 141L398.921 125.259C400.662 124.446 400.662 123.098 398.959 122.269Z" fill="white"/>
<path d="M398.959 141.405C398.959 141.405 393.041 138.534 392.257 138.143C391.472 137.751 391.26 137.777 390.436 138.162C389.612 138.547 366.557 149.788 366.557 149.788C365.584 150.21 364.534 150.419 363.475 150.404C362.363 150.404 361.234 150.192 360.39 149.788C360.39 149.788 337.928 138.886 336.876 138.361C335.727 137.801 335.398 137.801 334.366 138.303L327.964 141.405C326.259 142.231 326.259 143.582 327.964 144.411L360.366 160.156C361.208 160.579 362.335 160.772 363.448 160.772C364.561 160.772 365.689 160.561 366.531 160.156L398.939 144.419C400.662 143.582 400.662 142.234 398.959 141.405Z" fill="white"/>
<path fill-rule="evenodd" clip-rule="evenodd" d="M131.924 91.9835L132.887 90.3057L134.436 89.1865L135.808 88.557L195.157 88.7152L196.775 89.6155L198.496 91.1043L198.751 150.917L197.673 152.094L195.519 153.099L135.321 153.352L133.236 152.338L131.742 150.52L131.924 91.9835ZM135.126 140.702L195.46 140.661L195.631 92.1066L135.342 91.9211L135.126 140.702ZM147.769 149.388L155.783 149.46L155.821 148.311L149.142 148.25L149.208 146.999L155.767 147.027L155.82 146.161L149.254 146.106C149.254 146.106 149.238 144.727 149.255 144.561C149.272 144.396 155.827 144.727 155.827 144.727L155.81 143.861L147.836 143.893L147.769 149.388ZM185.384 149.047L193.398 149.119L193.436 147.97L186.757 147.909L186.823 146.658L193.382 146.686L193.435 145.82L186.869 145.765C186.869 145.765 186.853 144.386 186.87 144.22C186.887 144.055 193.442 144.386 193.442 144.386L193.425 143.52L185.451 143.552L185.384 149.047ZM158.383 143.921L158.341 149.263L168.882 149.313L168.89 143.943L166.906 143.916L166.963 147.956L164.32 148.006L164.266 143.954L162.47 143.893L162.509 148.056L159.933 147.976L159.861 143.905L158.383 143.921ZM171.471 143.89L171.345 149.41L172.821 149.386C172.821 149.386 172.77 143.984 172.727 143.898C172.684 143.811 171.471 143.891 171.471 143.891V143.89ZM137.371 143.94L137.325 149.414L138.848 149.379L138.845 147.229L142.179 147.272L143.482 149.111L145.6 149.127L143.909 147.299L145.349 146.299L145.281 143.731L137.371 143.94ZM175.325 143.94L175.279 149.414L176.802 149.379L176.799 147.229L180.132 147.272L181.436 149.111L183.554 149.127L181.862 147.299L183.303 146.299L183.235 143.731L175.325 143.94Z" fill="white"/>
<path fill-rule="evenodd" clip-rule="evenodd" d="M138.929 126.998L146.432 126.891L151.457 125.911L156.207 123.988L158.167 122.834L160.486 124.383L163.308 125.768L159.446 128.124L155.694 130.029L152.393 131.206L148.496 131.792L138.937 131.969L138.929 126.998ZM138.8 118.777L143.028 118.809L145.506 118.215L147.984 117.131L151.098 118.682L154.299 120.24L150.437 122.422L146.406 123.357L143.036 123.841L138.624 123.91L138.8 118.777Z" fill="white"/>
<path fill-rule="evenodd" clip-rule="evenodd" d="M138.88 113.4L143.802 113.676L148.414 115.269L153.025 117.382L157.051 119.316L161.181 122.157L168.787 127.21L173.62 129.364L178.507 131.408L181.088 131.858L191.932 131.855L191.946 126.681L183.238 126.957L177.923 125.384L172.262 122.902L167.817 119.757L163.064 116.577L158.192 113.903L153.541 111.316L148.547 109.044L144.615 108.134L138.954 108.198L138.88 113.4Z" fill="white"/>
<path fill-rule="evenodd" clip-rule="evenodd" d="M138.96 105.337L146.249 105.354L150.241 106.151L154.474 107.917L158.363 109.926L163.319 112.904L167.312 115.744L172.509 118.965L177.086 121.286L181.801 123.156L185.312 123.814L192.347 123.846L192.344 118.708L186.335 118.951L180.743 117.028L175.394 113.951L169.352 110.455L163.797 106.784L158.588 103.742L153.668 101.452L150.371 100.543L148.825 100.227L138.992 100.445L138.96 105.337Z" fill="white"/>
<path fill-rule="evenodd" clip-rule="evenodd" d="M192.361 113.135L192.44 107.628L186.258 107.694L183.375 108.248L179.588 109.391L176.635 110.846L175.523 111.469L178.616 113.022L181.713 114.719L185.12 113.739L187.736 113.25L192.361 113.135ZM191.969 105.155L192.132 99.749L185.392 99.7821L180.565 99.8145L176.117 101.027L171.429 103.209L167.816 105.873L167.843 106.558L170.114 107.909L172.592 109.64L175.896 107.753L179.647 106.459L184.397 105.407L191.969 105.155ZM139.141 145.085L139.106 146.297L143.153 146.329L143.325 145.07L139.141 145.085ZM177.094 145.085L177.06 146.297L181.107 146.329L181.279 145.07L177.094 145.085Z" fill="white"/>
<path fill-rule="evenodd" clip-rule="evenodd" d="M-94.728 101.052C-94.9764 101.335 -95.178 101.872 -95.1787 102.247L-95.2238 139.7C-95.2244 140.076 -95.0825 140.652 -94.9066 140.985L-94.8225 141.145C-94.647 141.478 -94.2004 141.751 -93.8242 141.755L-73.0605 141.978C-72.6847 141.982 -72.1523 141.778 -71.8751 141.528L-67.4132 137.492C-67.1343 137.24 -66.6043 137.037 -66.2298 137.038L-55.5313 137.077C-55.1565 137.078 -54.8536 137.385 -54.8549 137.762L-54.8559 138.149C-54.8561 138.239 -54.8738 138.328 -54.9082 138.41C-54.9425 138.493 -54.9928 138.568 -55.0561 138.631C-55.1194 138.695 -55.1945 138.745 -55.277 138.778C-55.3595 138.812 -55.4479 138.829 -55.5371 138.829L-59.2538 138.813C-59.4344 138.813 -59.608 138.884 -59.7366 139.011C-59.8653 139.139 -59.9387 139.312 -59.9407 139.494L-60.0092 145.535C-60.0107 145.624 -59.9946 145.713 -59.9616 145.796C-59.9286 145.879 -59.8795 145.954 -59.8171 146.018C-59.7547 146.081 -59.6804 146.132 -59.5983 146.166C-59.5163 146.2 -59.4283 146.218 -59.3396 146.217L-55.512 146.212C-55.3311 146.213 -55.1573 146.283 -55.0272 146.41C-54.897 146.536 -54.8206 146.708 -54.8139 146.89L-54.7831 147.924C-54.7804 148.013 -54.7953 148.101 -54.8269 148.184C-54.8585 148.268 -54.9062 148.344 -54.9672 148.408C-55.0282 148.472 -55.1014 148.524 -55.1824 148.56C-55.2634 148.596 -55.3507 148.615 -55.4391 148.617L-65.8852 148.833C-66.259 148.841 -66.7859 148.643 -67.0652 148.389L-71.9619 143.93C-72.2397 143.677 -72.7708 143.47 -73.1425 143.469L-94.0154 143.39C-94.3895 143.389 -94.9317 143.204 -95.2285 142.974L-95.3092 142.912C-95.6047 142.684 -95.9984 142.235 -96.1882 141.91L-96.4457 141.47C-96.6355 141.144 -96.79 140.574 -96.7907 140.202L-96.8778 101.961C-96.8788 101.586 -96.7399 101.007 -96.5718 100.676L-96.481 100.498C-96.3112 100.163 -95.9686 99.6677 -95.7141 99.3894L-95.4871 99.1408C-95.2329 98.8633 -94.7222 98.6378 -94.3491 98.6372L-13.6728 98.539C-13.298 98.5386 -12.7632 98.7326 -12.4738 98.9765L-12.3739 99.0607C-12.0865 99.3028 -11.6927 99.7601 -11.4962 100.079L-11.2363 100.5C-11.039 100.821 -10.8788 101.386 -10.8788 101.765L-10.8764 139.826C-10.8764 140.204 -10.9696 140.799 -11.0865 141.161L-11.1621 141.394C-11.2783 141.754 -11.5935 142.254 -11.8686 142.515L-12.096 142.73C-12.3702 142.989 -12.8947 143.202 -13.2688 143.204L-34.5277 143.336C-34.9014 143.338 -35.4253 143.545 -35.7049 143.805L-40.5149 148.272C-40.7914 148.53 -41.319 148.741 -41.6962 148.745L-50.1259 148.837C-50.3068 148.839 -50.4812 148.769 -50.6113 148.642C-50.7414 148.516 -50.8167 148.343 -50.821 148.161L-50.8711 145.802C-50.8756 145.62 -50.9502 145.448 -51.0791 145.32C-51.2079 145.193 -51.3809 145.121 -51.5614 145.12L-55.5892 145.131C-55.7684 145.132 -55.9405 145.061 -56.0676 144.934C-56.1946 144.806 -56.2664 144.634 -56.267 144.453L-56.2748 141.273C-56.2744 141.092 -56.2027 140.919 -56.0757 140.792C-55.9486 140.664 -55.7765 140.592 -55.597 140.592L-51.5479 140.589C-51.3663 140.588 -51.1922 140.516 -51.0621 140.389C-50.9319 140.262 -50.8558 140.089 -50.8498 139.906L-50.7901 137.775C-50.78 137.398 -50.4706 137.093 -50.0965 137.093L-41.399 137.092C-41.0262 137.092 -40.4979 137.294 -40.2187 137.544L-35.8059 141.497C-35.5267 141.747 -34.9973 141.949 -34.6263 141.949L-14.238 141.918C-13.8656 141.918 -13.3929 141.663 -13.1828 141.351L-13.0584 141.166C-12.848 140.853 -12.6755 140.298 -12.6738 139.916L-12.4942 102.366C-12.4925 101.989 -12.666 101.436 -12.8849 101.127L-13.1011 100.822C-13.3187 100.515 -13.7951 100.267 -14.174 100.267L-93.4528 100.37C-93.8276 100.37 -94.3332 100.601 -94.5813 100.884L-94.728 101.052Z" fill="white"/>
<path fill-rule="evenodd" clip-rule="evenodd" d="M-76.7593 132.745C-77.132 132.755 -77.5919 132.503 -77.7861 132.183L-89.7462 112.438C-89.9407 112.117 -90.3674 111.721 -90.7052 111.549L-90.4765 111.665C-90.812 111.495 -91.3843 111.359 -91.7625 111.36L-91.9631 111.36C-92.0517 111.361 -92.1395 111.344 -92.2215 111.31C-92.3034 111.276 -92.3777 111.226 -92.4402 111.163C-92.5026 111.1 -92.5518 111.025 -92.5849 110.942C-92.6181 110.859 -92.6344 110.771 -92.6331 110.682L-92.6355 110.861C-92.6322 110.68 -92.558 110.506 -92.429 110.379C-92.3 110.251 -92.1264 110.18 -91.9455 110.179L-78.1443 110.147C-78.0563 110.146 -77.9691 110.163 -77.8879 110.197C-77.8067 110.231 -77.7333 110.281 -77.6721 110.345C-77.6108 110.408 -77.5631 110.484 -77.5319 110.566C-77.5006 110.649 -77.4865 110.737 -77.4902 110.826L-77.4794 110.549C-77.4943 110.925 -77.8074 111.25 -78.1853 111.275L-79.6916 111.375C-80.0663 111.401 -80.615 111.604 -80.9166 111.829L-80.4259 111.462C-80.7275 111.687 -81.0897 112.154 -81.2321 112.497L-81.0596 112.082C-81.2033 112.428 -81.166 112.975 -80.9776 113.301L-74.4729 124.581C-74.2838 124.908 -73.986 124.909 -73.8047 124.577L-68.0977 114.142C-67.9174 113.813 -67.6772 113.256 -67.5606 112.898L-67.6368 113.132C-67.5206 112.774 -67.5813 112.222 -67.7738 111.898L-67.5955 112.198C-67.7873 111.875 -68.2478 111.598 -68.6199 111.58L-70.3868 111.496C-70.7606 111.478 -71.0811 111.161 -71.1025 110.78L-71.093 110.948C-71.0986 110.859 -71.0865 110.77 -71.0573 110.685C-71.028 110.601 -70.9823 110.523 -70.9229 110.457C-70.8634 110.391 -70.7913 110.337 -70.7109 110.299C-70.6305 110.261 -70.5433 110.24 -70.4546 110.236L-66.0536 110.048C-65.6799 110.032 -65.2251 109.756 -65.037 109.429L-64.5199 108.53C-64.3322 108.204 -63.9421 107.745 -63.6551 107.51L-62.3132 106.414C-62.0234 106.177 -61.5049 105.876 -61.1559 105.741L-58.8821 104.864C-58.5327 104.729 -57.9525 104.574 -57.5798 104.517L-55.2907 104.168C-54.8443 104.106 -54.3943 104.074 -53.9437 104.072L-51.4601 104.094C-51.0086 104.101 -50.5574 104.12 -50.107 104.152L-48.1961 104.297C-47.8226 104.325 -47.2276 104.438 -46.8728 104.547L-45.1157 105.087C-44.7582 105.198 -44.1669 105.286 -43.7884 105.285L-41.7477 105.28C-41.3722 105.279 -40.9188 105.013 -40.7338 104.684L-40.5687 104.39C-40.384 104.062 -39.932 103.777 -39.5555 103.754L-38.8036 103.708C-38.7162 103.701 -38.6283 103.713 -38.5456 103.742C-38.463 103.771 -38.3872 103.817 -38.3232 103.878C-38.2592 103.938 -38.2084 104.011 -38.174 104.092C-38.1395 104.173 -38.1222 104.261 -38.1231 104.349L-38.1153 109.142C-38.1145 109.323 -38.0431 109.496 -37.9163 109.625C-37.7896 109.753 -37.6178 109.826 -37.4379 109.829L-17.7552 109.954C-17.5755 109.956 -17.4038 110.029 -17.2778 110.158C-17.1517 110.287 -17.0816 110.46 -17.0829 110.641L-17.112 116.069C-17.114 116.446 -17.417 116.717 -17.7863 116.675L-17.8026 116.673C-18.173 116.631 -18.5708 116.31 -18.6925 115.952L-18.7603 115.752C-18.912 115.325 -19.0922 114.909 -19.2998 114.507L-19.4936 114.143C-19.6705 113.811 -20.0534 113.354 -20.3465 113.125L-20.9795 112.629C-21.3371 112.355 -21.7086 112.1 -22.0927 111.865L-22.2466 111.773C-22.5672 111.582 -23.1304 111.421 -23.5035 111.415L-26.6692 111.36C-26.7575 111.358 -26.8453 111.374 -26.9273 111.407C-27.0093 111.44 -27.084 111.49 -27.1468 111.552C-27.2096 111.615 -27.2593 111.689 -27.293 111.771C-27.3267 111.853 -27.3436 111.942 -27.3429 112.03L-27.269 129.681C-27.2673 130.058 -27.0121 130.532 -26.7014 130.737L-26.6604 130.765C-26.3486 130.971 -25.8017 131.225 -25.4449 131.33L-25.6279 131.276C-25.2683 131.382 -24.6763 131.468 -24.2968 131.469L-23.2835 131.469C-22.9081 131.469 -22.6038 131.776 -22.6034 132.151V131.81C-22.6033 131.991 -22.6743 132.165 -22.8011 132.295C-22.9278 132.424 -23.1001 132.498 -23.2805 132.5L-38.8036 132.71C-39.1777 132.715 -39.4525 132.415 -39.4176 132.04L-39.4461 132.345C-39.4111 131.97 -39.0791 131.643 -38.7066 131.616L-37.221 131.506C-36.8476 131.479 -36.2789 131.312 -35.9502 131.133L-35.7923 131.048C-35.4636 130.869 -35.1112 130.433 -35.0024 130.068C-34.8943 129.706 -34.81 129.106 -34.8133 128.73L-34.9712 111.997C-34.9729 111.817 -35.0455 111.644 -35.1734 111.518C-35.3012 111.391 -35.4737 111.321 -35.6531 111.322L-37.4152 111.34C-37.7879 111.344 -38.1133 111.652 -38.1417 112.026L-38.1621 112.292C-38.1902 112.667 -38.5179 112.977 -38.8896 112.984L-39.4864 112.994C-39.8598 113 -40.3037 112.734 -40.4759 112.403L-41.2929 110.83C-41.4657 110.497 -41.8297 110.024 -42.1082 109.77L-44.1442 107.915C-44.4214 107.662 -44.9161 107.315 -45.2469 107.141L-46.0476 106.719C-46.4495 106.512 -46.8589 106.319 -47.275 106.142L-48.2286 105.746C-48.5742 105.601 -49.1571 105.446 -49.5241 105.399L-50.6116 105.261C-51.0582 105.21 -51.5074 105.185 -51.9569 105.186L-53.4567 105.207C-53.8298 105.213 -54.4188 105.312 -54.7743 105.431L-55.7509 105.756C-56.1767 105.903 -56.5931 106.077 -56.9979 106.275L-57.33 106.443C-57.6638 106.612 -58.0898 107.013 -58.2799 107.337L-58.288 107.351C-58.4785 107.676 -58.7841 108.206 -58.9668 108.529L-58.7177 108.089C-58.9021 108.415 -59.0393 108.98 -59.0237 109.358L-59.0224 109.391C-59.0071 109.766 -58.8628 110.345 -58.6991 110.685L-58.7093 110.664C-58.5459 111.003 -58.1657 111.453 -57.8614 111.669L-56.9447 112.318C-56.6398 112.533 -56.1043 112.811 -55.7529 112.936L-53.3605 113.787C-53.0074 113.912 -52.432 114.106 -52.0721 114.221L-49.4401 115.061C-49.0816 115.175 -48.4997 115.362 -48.1479 115.475L-46.8053 115.907C-46.4502 116.022 -45.8717 116.202 -45.5129 116.311L-45.7277 116.246C-45.3689 116.354 -45.0805 116.138 -45.0839 115.761L-45.1228 110.644C-45.1244 110.556 -45.1079 110.468 -45.0742 110.387C-45.0406 110.305 -44.9906 110.231 -44.9273 110.17C-44.864 110.109 -44.7889 110.061 -44.7065 110.031C-44.6242 110 -44.5365 109.987 -44.4488 109.992L-43.9259 110.014C-43.5508 110.03 -43.0893 110.302 -42.892 110.628L-42.0205 112.063C-41.8246 112.387 -41.8693 112.873 -42.1245 113.154L-42.1465 113.178C-42.4 113.457 -42.6853 113.976 -42.785 114.341L-43.0764 115.408C-43.1757 115.771 -43.5278 116.198 -43.8636 116.363L-43.4014 116.136C-43.7369 116.3 -44.1672 116.694 -44.2367 116.808L-44.009 116.433C-44.1347 116.641 -43.9585 116.927 -43.6098 117.076L-41.9076 117.802C-41.493 117.986 -41.0912 118.198 -40.705 118.436L-39.729 119.056C-39.4111 119.259 -38.9584 119.652 -38.7117 119.943L-38.1492 120.605C-37.8607 120.954 -37.5958 121.322 -37.3562 121.707L-37.2417 121.897C-37.0479 122.218 -36.8777 122.786 -36.8622 123.163L-36.8073 124.477C-36.792 124.933 -36.7949 125.389 -36.8157 125.844L-36.8286 126.088C-36.8489 126.465 -37.0421 127.015 -37.2644 127.322L-37.7388 127.977C-37.9591 128.281 -38.3674 128.727 -38.6528 128.974L-39.7277 129.907C-40.0123 130.154 -40.5077 130.507 -40.8324 130.693L-42.2231 131.492C-42.5491 131.679 -43.1072 131.899 -43.4756 131.985L-46.3326 132.652C-46.775 132.753 -47.2203 132.84 -47.6678 132.913L-48.4479 133.037C-48.8948 133.102 -49.3452 133.14 -49.7966 133.151L-54.0962 133.202C-54.4696 133.206 -55.0711 133.154 -55.4361 133.085L-57.1677 132.76C-57.6111 132.677 -58.0542 132.592 -58.4971 132.505L-60.4558 132.122C-60.8992 132.042 -61.3476 131.994 -61.7977 131.977L-62.6015 131.959C-62.975 131.951 -63.5416 132.093 -63.8689 132.278L-63.8757 132.282C-64.2024 132.467 -64.4996 132.919 -64.5324 133.221L-64.467 132.616C-64.503 132.95 -64.8344 133.236 -65.2075 133.255L-65.5904 133.274C-65.6777 133.279 -65.7652 133.266 -65.8473 133.236C-65.9295 133.206 -66.0045 133.159 -66.0678 133.098C-66.1311 133.037 -66.1813 132.964 -66.2152 132.883C-66.2491 132.802 -66.2659 132.715 -66.2648 132.627L-66.2485 123.495C-66.2471 123.314 -66.1761 123.14 -66.0502 123.01C-65.9243 122.88 -65.7534 122.803 -65.5731 122.797L-65.0828 122.785C-64.71 122.775 -64.3149 123.059 -64.2003 123.414L-63.8008 124.658C-63.6859 125.015 -63.4331 125.561 -63.2335 125.882L-62.6497 126.82C-62.4511 127.138 -62.0763 127.613 -61.8103 127.883L-60.9065 128.797C-60.6415 129.065 -60.1664 129.442 -59.8492 129.636L-58.1843 130.655C-57.8658 130.851 -57.3117 131.071 -56.9441 131.149L-54.8739 131.586C-54.5079 131.663 -53.9101 131.722 -53.5306 131.717L-50.4116 131.68C-50.0355 131.675 -49.4353 131.609 -49.068 131.532L-47.2489 131.15C-46.8829 131.074 -46.3784 130.791 -46.1185 130.514L-44.97 129.293C-44.7121 129.018 -44.417 128.505 -44.3099 128.141L-44.2042 127.781C-44.0977 127.42 -44.1127 126.836 -44.2353 126.484L-44.4176 125.961C-44.5413 125.606 -44.8734 125.121 -45.1615 124.876L-45.2401 124.809C-45.5275 124.565 -46.0388 124.247 -46.3841 124.098L-47.7413 123.512C-48.158 123.336 -48.5802 123.172 -49.0073 123.023L-51.1582 122.286C-51.5126 122.165 -52.085 121.971 -52.4418 121.85L-54.3673 121.199C-54.796 121.057 -55.2279 120.924 -55.6628 120.802L-56.92 120.455C-57.3537 120.329 -57.7791 120.176 -58.1935 119.996L-58.9644 119.648C-59.3773 119.46 -59.7874 119.266 -60.1945 119.067L-61.5226 118.41C-61.9254 118.203 -62.314 117.97 -62.6856 117.711L-63.2681 117.293C-63.5731 117.073 -64.0238 116.668 -64.2749 116.386L-64.1393 116.538C-64.3904 116.256 -64.712 115.75 -64.8615 115.398L-64.6436 115.911C-64.7913 115.563 -64.7266 115.04 -64.4996 114.743L-64.7392 115.056C-64.5121 114.759 -64.1 114.32 -63.8116 114.071L-63.1546 113.502C-62.8699 113.256 -62.3548 112.953 -62.0011 112.825L-62.1522 112.88C-61.7259 112.729 -61.2944 112.593 -60.8584 112.474C-60.4958 112.378 -60.2247 111.991 -60.2518 111.617L-60.2603 111.495C-60.2874 111.119 -60.6127 110.798 -60.9861 110.78L-61.0614 110.776C-61.4351 110.758 -61.8733 111.017 -61.9662 111.205L-61.7377 110.743C-61.8642 110.998 -62.263 111.262 -62.6331 111.333L-62.9157 111.387C-63.284 111.458 -63.813 111.714 -64.0953 111.957L-64.2956 112.13C-64.5789 112.375 -64.975 112.826 -65.1841 113.143L-65.3186 113.347C-65.5658 113.728 -65.7992 114.118 -66.0184 114.516L-75.54 132.12C-75.7189 132.451 -76.1669 132.728 -76.539 132.738L-76.7593 132.744V132.745Z" fill="white"/>
<path fill-rule="evenodd" clip-rule="evenodd" d="M-193.667 151.124L-194.126 150.204L-194.743 149.014L-194.763 91.9804L-194.381 90.318L-193.251 88.5689L-191.601 87.6338L-131.91 87.6724L-130.157 88.5181L-128.483 89.9405L-127.944 91.3042L-128.007 148.835L-128.781 150.565L-129.9 151.841L-131.724 152.348L-190.466 152.299L-192.376 151.902L-193.667 151.124ZM-191.964 148.568L-191.534 149.322L-190.897 149.824L-131.699 149.685L-131.2 149.213L-130.684 148.356L-130.739 91.5899L-131.277 90.838L-131.816 90.4186L-191.051 90.4721L-191.746 90.8878L-192.165 91.667L-191.964 148.568Z" fill="white"/>
<path fill-rule="evenodd" clip-rule="evenodd" d="M-186.596 105.623L-169.645 105.59L-165.67 106.491L-162.693 108.101L-160.904 110.473L-160.077 111.891L-159.716 114.09L-159.578 116.833L-160.013 119.672L-161.489 121.68L-163.364 123.205L-165.084 124.485L-167.08 124.865L-167.255 125.385L-158.444 138.67L-167.566 138.7L-174.701 126.193L-179.079 126.348L-179.161 138.712L-186.649 138.695L-186.596 105.623ZM-179.238 111.834L-179.103 120.436L-171.172 120.348C-171.172 120.348 -169.417 119.788 -169.314 119.666C-169.211 119.544 -167.868 118.075 -167.868 118.075L-167.525 116.45L-167.855 114.282L-169.193 112.535L-170.843 111.853L-179.238 111.834ZM-155.902 118.468L-153.407 116.108L-150.534 114.71L-146.679 114.394L-142.583 114.844L-139.434 116.975L-137.559 119.441L-136.63 121.727C-136.63 121.727 -135.787 124.677 -135.787 124.816C-135.787 124.955 -135.822 129.059 -135.822 129.059L-151.198 129.124L-151.026 130.561L-149.891 132.328L-148.221 133.505L-144.945 133.614L-142.829 132.373L-141.951 130.957L-135.684 133.085L-137.612 135.873L-139.731 137.673L-142.63 139.245L-146.139 139.452L-150.336 139.311L-153.775 137.563L-156.258 135.098L-157.76 131.651L-158.35 128.199L-158.329 124.672L-157.296 121.249L-155.902 118.468ZM-151.079 124.209L-142.906 124.447L-142.906 123.079L-143.543 121.451L-144.696 120.291L-147.414 119.928L-149.497 120.627L-150.529 122.095L-151.079 124.209ZM-182.504 146.665H-183.392C-183.923 145.82 -184.253 145.301 -184.382 145.108C-184.499 144.929 -184.635 144.762 -184.788 144.611C-184.93 144.473 -185.063 144.386 -185.188 144.35C-185.313 144.313 -185.479 144.295 -185.685 144.295H-186.5V146.665H-187.207V141.294H-184.844C-184.521 141.294 -184.251 141.315 -184.032 141.357C-183.822 141.394 -183.625 141.484 -183.458 141.618C-183.291 141.751 -183.16 141.925 -183.077 142.122C-182.988 142.324 -182.943 142.543 -182.944 142.764C-182.944 143.169 -183.071 143.495 -183.326 143.742C-183.581 143.988 -183.952 144.144 -184.44 144.21V144.225C-184.083 144.384 -183.749 144.71 -183.435 145.203L-182.504 146.665ZM-186.5 143.657H-184.986C-184.68 143.657 -184.438 143.631 -184.26 143.579C-184.086 143.529 -183.935 143.421 -183.832 143.273C-183.726 143.124 -183.67 142.946 -183.672 142.764C-183.672 142.519 -183.761 142.312 -183.938 142.14C-184.115 141.97 -184.407 141.884 -184.815 141.884H-186.5V143.657V143.657ZM-178.572 146.665H-179.26C-179.323 146.543 -179.368 146.383 -179.395 146.185C-179.834 146.566 -180.308 146.756 -180.818 146.756C-181.226 146.756 -181.547 146.654 -181.783 146.448C-182.018 146.244 -182.136 145.972 -182.136 145.635C-182.136 145.313 -182.023 145.047 -181.795 144.839C-181.568 144.63 -181.175 144.491 -180.614 144.423L-180.002 144.331C-179.774 144.295 -179.586 144.249 -179.438 144.196C-179.438 143.998 -179.444 143.858 -179.457 143.776C-179.473 143.684 -179.51 143.597 -179.564 143.522C-179.624 143.434 -179.719 143.363 -179.85 143.309C-179.981 143.256 -180.157 143.229 -180.378 143.229C-180.659 143.229 -180.882 143.281 -181.046 143.386C-181.21 143.491 -181.322 143.686 -181.382 143.972L-182.023 143.888C-181.953 143.49 -181.772 143.191 -181.481 142.991C-181.189 142.79 -180.789 142.69 -180.279 142.69C-179.816 142.69 -179.476 142.759 -179.258 142.897C-179.041 143.035 -178.908 143.202 -178.858 143.397C-178.808 143.593 -178.783 143.844 -178.783 144.152V145.038C-178.783 145.578 -178.773 145.94 -178.752 146.125C-178.729 146.315 -178.668 146.499 -178.572 146.665ZM-179.438 144.954V144.716C-179.781 144.831 -180.199 144.922 -180.694 144.989C-181.189 145.056 -181.437 145.267 -181.437 145.621C-181.437 145.799 -181.37 145.946 -181.237 146.062C-181.103 146.178 -180.911 146.236 -180.662 146.236C-180.339 146.236 -180.054 146.139 -179.808 145.945C-179.562 145.75 -179.438 145.42 -179.438 144.954ZM-174.611 145.32C-174.696 145.816 -174.891 146.179 -175.194 146.41C-175.489 146.638 -175.852 146.76 -176.224 146.756C-176.785 146.756 -177.218 146.571 -177.524 146.201C-177.829 145.831 -177.982 145.341 -177.982 144.73C-177.982 144.225 -177.894 143.82 -177.718 143.516C-177.543 143.212 -177.322 142.998 -177.058 142.875C-176.793 142.752 -176.515 142.69 -176.224 142.69C-175.826 142.69 -175.486 142.794 -175.203 143.002C-174.92 143.209 -174.746 143.514 -174.68 143.917L-175.314 144.016C-175.38 143.755 -175.486 143.558 -175.633 143.426C-175.779 143.294 -175.967 143.228 -176.195 143.228C-176.561 143.228 -176.839 143.359 -177.029 143.62C-177.218 143.882 -177.313 144.247 -177.313 144.716C-177.313 145.195 -177.22 145.564 -177.034 145.824C-176.848 146.084 -176.581 146.214 -176.232 146.214C-175.95 146.214 -175.728 146.133 -175.567 145.97C-175.406 145.808 -175.304 145.565 -175.263 145.24L-174.611 145.32ZM-170.848 146.665H-171.652L-172.937 144.676L-173.399 145.119V146.665H-174.055V141.294H-173.399V144.353L-171.849 142.778H-170.997L-172.475 144.218L-170.848 146.665ZM-164.171 146.665H-168.157V141.294H-164.295V141.932H-167.451V143.573H-164.499V144.21H-167.451V146.027H-164.171V146.665ZM-160.906 146.665L-161.911 145.126L-162.926 146.665H-163.723L-162.308 144.639L-163.611 142.778H-162.799C-162.27 143.582 -161.981 144.03 -161.932 144.122L-160.986 142.778H-160.203L-161.539 144.603L-160.098 146.665H-160.906ZM-158.041 146.658C-158.235 146.696 -158.399 146.716 -158.533 146.716C-158.819 146.716 -159.028 146.665 -159.159 146.564C-159.285 146.471 -159.371 146.332 -159.399 146.177C-159.428 146.021 -159.443 145.804 -159.443 145.525V143.287H-159.92V142.778H-159.443V141.811L-158.787 141.412V142.778H-158.132V143.287H-158.787V145.562C-158.787 145.758 -158.767 145.896 -158.727 145.978C-158.687 146.06 -158.586 146.101 -158.423 146.101C-158.329 146.101 -158.232 146.091 -158.132 146.071L-158.041 146.658ZM-154.12 144.888H-157.014C-156.988 145.318 -156.866 145.646 -156.649 145.874C-156.432 146.101 -156.16 146.214 -155.835 146.214C-155.585 146.214 -155.375 146.148 -155.205 146.014C-155.036 145.881 -154.906 145.68 -154.816 145.412L-154.142 145.496C-154.252 145.902 -154.452 146.213 -154.743 146.43C-155.034 146.648 -155.398 146.756 -155.835 146.756C-156.415 146.756 -156.869 146.577 -157.195 146.22C-157.521 145.862 -157.684 145.373 -157.684 144.753C-157.684 144.139 -157.526 143.643 -157.209 143.262C-156.893 142.88 -156.447 142.69 -155.872 142.69C-155.59 142.69 -155.319 142.752 -155.058 142.877C-154.797 143.002 -154.576 143.213 -154.394 143.512C-154.212 143.812 -154.12 144.27 -154.12 144.888ZM-154.794 144.346C-154.821 143.95 -154.943 143.665 -155.16 143.491C-155.377 143.316 -155.614 143.229 -155.872 143.229C-156.18 143.229 -156.433 143.332 -156.632 143.54C-156.831 143.748 -156.947 144.016 -156.978 144.346H-154.794ZM-150.175 146.665H-150.833V144.302C-150.833 143.904 -150.905 143.63 -151.047 143.481C-151.189 143.332 -151.385 143.258 -151.638 143.258C-151.832 143.258 -152.016 143.306 -152.19 143.401C-152.355 143.488 -152.486 143.63 -152.559 143.804C-152.632 143.977 -152.668 144.223 -152.668 144.54V146.665H-153.323V142.778H-152.734V143.327H-152.719C-152.581 143.115 -152.41 142.955 -152.208 142.849C-152.005 142.743 -151.77 142.69 -151.503 142.69C-151.299 142.69 -151.098 142.727 -150.899 142.8C-150.7 142.873 -150.544 142.983 -150.431 143.13C-150.318 143.276 -150.247 143.433 -150.218 143.599C-150.189 143.765 -150.175 143.989 -150.175 144.272V146.665ZM-147.03 143.866C-147.059 143.654 -147.144 143.494 -147.286 143.388C-147.428 143.282 -147.625 143.229 -147.878 143.229C-148.127 143.229 -148.33 143.271 -148.484 143.357C-148.638 143.442 -148.715 143.567 -148.715 143.731C-148.715 143.884 -148.654 143.994 -148.531 144.06C-148.408 144.126 -148.166 144.207 -147.805 144.302C-147.397 144.407 -147.092 144.5 -146.889 144.58C-146.687 144.661 -146.529 144.774 -146.416 144.919C-146.303 145.064 -146.247 145.267 -146.247 145.525C-146.247 145.872 -146.388 146.164 -146.669 146.401C-146.951 146.638 -147.327 146.756 -147.797 146.756C-148.288 146.756 -148.671 146.652 -148.946 146.443C-149.221 146.234 -149.391 145.921 -149.454 145.504L-148.802 145.405C-148.768 145.676 -148.668 145.878 -148.502 146.013C-148.336 146.147 -148.103 146.214 -147.805 146.214C-147.519 146.214 -147.299 146.154 -147.146 146.033C-146.993 145.912 -146.917 145.765 -146.917 145.592C-146.917 145.474 -146.952 145.38 -147.022 145.309C-147.097 145.236 -147.187 145.181 -147.286 145.15C-147.391 145.114 -147.629 145.052 -147.998 144.961C-148.546 144.829 -148.909 144.669 -149.084 144.482C-149.258 144.301 -149.353 144.058 -149.348 143.807C-149.348 143.483 -149.22 143.215 -148.962 143.005C-148.705 142.795 -148.359 142.69 -147.925 142.69C-147.464 142.69 -147.105 142.781 -146.849 142.963C-146.593 143.145 -146.44 143.417 -146.389 143.778L-147.029 143.866H-147.03ZM-144.802 146.665H-145.457V142.778H-144.802V146.665ZM-144.802 142.042H-145.457V141.294H-144.802V142.042ZM-142.228 142.69C-141.706 142.69 -141.274 142.861 -140.93 143.203C-140.587 143.545 -140.415 144.031 -140.415 144.661C-140.415 145.425 -140.601 145.966 -140.972 146.282C-141.343 146.598 -141.762 146.756 -142.228 146.756C-142.716 146.756 -143.139 146.594 -143.498 146.269C-143.858 145.944 -144.037 145.429 -144.037 144.723C-144.037 144.039 -143.864 143.53 -143.517 143.194C-143.169 142.858 -142.74 142.69 -142.228 142.69ZM-142.228 146.214C-141.854 146.214 -141.571 146.075 -141.376 145.796C-141.182 145.518 -141.085 145.152 -141.085 144.697C-141.085 144.211 -141.195 143.845 -141.414 143.599C-141.634 143.352 -141.905 143.229 -142.228 143.229C-142.56 143.229 -142.834 143.354 -143.047 143.604C-143.261 143.854 -143.367 144.227 -143.367 144.723C-143.367 145.216 -143.259 145.588 -143.042 145.838C-142.824 146.089 -142.553 146.214 -142.228 146.214ZM-137.157 146.665V144.302C-137.157 143.904 -137.228 143.63 -137.37 143.481C-137.512 143.332 -137.709 143.258 -137.962 143.258C-138.155 143.258 -138.344 143.307 -138.513 143.401C-138.679 143.488 -138.81 143.63 -138.882 143.804C-138.956 143.977 -138.992 144.223 -138.992 144.54V146.665H-139.647V142.778H-139.058V143.327H-139.043C-138.904 143.115 -138.734 142.955 -138.531 142.849C-138.329 142.743 -138.094 142.69 -137.827 142.69C-137.623 142.69 -137.422 142.727 -137.223 142.8C-137.024 142.873 -136.868 142.983 -136.755 143.13C-136.647 143.266 -136.574 143.427 -136.542 143.599C-136.513 143.765 -136.498 143.989 -136.498 144.272V146.665H-137.157Z" fill="white"/>
<path fill-rule="evenodd" clip-rule="evenodd" d="M21.2394 120.764H25.4367V131.068H31.9878V134.434H21.2394V120.764ZM42.2546 132.178H37.4731L36.816 134.434H32.5259L37.6313 120.764H42.2082L47.3139 134.434H42.9218L42.2546 132.178ZM41.3745 129.222L39.8733 124.308L38.3813 129.222H41.3745ZM48.7132 120.765H54.9491C56.1785 120.765 57.1714 120.932 57.9281 121.268C58.6848 121.604 59.3104 122.085 59.8044 122.713C60.2989 123.341 60.6571 124.072 60.8793 124.905C61.1017 125.737 61.2128 126.62 61.2128 127.553C61.2128 129.013 61.0478 130.146 60.7174 130.951C60.3866 131.756 59.9278 132.431 59.3415 132.975C58.7543 133.519 58.1243 133.881 57.4506 134.061C56.5306 134.31 55.6966 134.434 54.9491 134.434H48.7132V120.765ZM52.9104 123.86V131.329H53.9392C54.8162 131.329 55.4404 131.231 55.8108 131.035C56.1815 130.84 56.4716 130.498 56.6817 130.01C56.8918 129.522 56.9969 128.731 56.9969 127.636C56.9969 126.188 56.762 125.197 56.2927 124.662C55.8234 124.127 55.045 123.86 53.9579 123.86H52.9104ZM62.6862 129.912L66.6798 129.66C66.7666 130.313 66.9424 130.81 67.2081 131.152C67.6405 131.705 68.2583 131.982 69.0614 131.982C69.6606 131.982 70.1221 131.84 70.4467 131.557C70.771 131.275 70.933 130.947 70.933 130.574C70.933 130.219 70.7785 129.902 70.4698 129.623C70.1607 129.343 69.4443 129.079 68.32 128.83C66.4792 128.414 65.1664 127.861 64.3823 127.17C63.5913 126.48 63.1962 125.601 63.1962 124.532C63.1962 123.829 63.3982 123.165 63.8028 122.541C64.2074 121.916 64.816 121.425 65.6283 121.068C66.4406 120.71 67.5541 120.531 68.9686 120.531C70.7046 120.531 72.0279 120.856 72.9391 121.506C73.8503 122.155 74.3922 123.189 74.5654 124.606L70.6087 124.839C70.5037 124.224 70.2827 123.776 69.9462 123.497C69.6094 123.217 69.1448 123.077 68.5518 123.077C68.0638 123.077 67.6961 123.181 67.4491 123.389C67.2017 123.597 67.0783 123.851 67.0783 124.149C67.0783 124.367 67.18 124.563 67.384 124.736C67.5819 124.917 68.0516 125.085 68.7927 125.24C70.6273 125.638 71.9415 126.041 72.7351 126.448C73.5291 126.855 74.1065 127.36 74.4681 127.963C74.8294 128.566 75.0103 129.241 75.0103 129.986C75.0103 130.863 74.769 131.671 74.2875 132.411C73.8056 133.151 73.132 133.712 72.2675 134.094C71.4023 134.476 70.3122 134.667 68.9964 134.667C66.6863 134.667 65.0861 134.22 64.1966 133.325C63.307 132.429 62.8038 131.292 62.6862 129.912ZM77.1042 120.764H84.0816C85.6011 120.764 86.7394 121.128 87.4961 121.856C88.2528 122.583 88.6313 123.618 88.6313 124.961C88.6313 126.341 88.2189 127.419 87.3944 128.196C86.5696 128.973 85.311 129.362 83.6183 129.362H81.3201V134.434H77.1042V120.764ZM81.3201 126.592H82.3489C83.1582 126.592 83.7265 126.451 84.0535 126.168C84.3812 125.885 84.5448 125.523 84.5448 125.082C84.5448 124.653 84.4025 124.289 84.1185 123.991C83.8346 123.692 83.3001 123.543 82.5157 123.543H81.3201V126.592ZM97.5728 132.178H92.7916L92.1339 134.434H87.8438L92.9492 120.764H97.5267L102.632 134.434H98.2404L97.5728 132.178ZM96.6927 129.222L95.1915 124.308L93.6998 129.222H96.6927Z" fill="white"/>
<path fill-rule="evenodd" clip-rule="evenodd" d="M233.32 150.969L238.092 138.335L241.241 138.282L245.902 150.323L250.663 138.378L253.816 138.399L258.261 150.284L262.314 145.29L258.585 138.431L262.02 138.443L264.384 142.62L267.512 138.44L270.587 138.482L266.933 144.693L270.587 151.114H267.388L264.358 146.729L261.75 150.966L255.585 150.948L254.361 147.917L250.112 147.816L248.771 151.373L242.942 151.114L241.933 147.769L237.417 147.854L236.507 150.871L233.32 150.969ZM237.807 145.93L241.421 145.919L239.63 141.173L237.807 145.93ZM250.303 145.828H253.82L252.324 141.068L250.303 145.828ZM252.324 136.443C241.281 136.443 232.33 127.37 232.33 116.178C232.33 104.986 241.281 95.9122 252.324 95.9122C263.366 95.9122 272.317 104.985 272.317 116.178C272.317 127.37 263.366 136.443 252.324 136.443ZM240.209 128.584L242.616 130.838L245.697 132.269L248.411 133.255L252.189 133.691L255.815 133.255L258.82 132.242L262.084 130.51L264.169 128.633L263.331 128.04L261.501 126.382L259.625 124.325L258.498 122.445L257.18 120.431L255.815 118.362L254.398 116.611L252.189 115.955L249.798 116.611L248.411 118.362L246.76 121.229L244.873 124.147L242.797 126.66L240.209 128.584ZM236.141 120.75C236.139 121.504 236.375 122.68 236.666 123.369L236.361 122.646C236.653 123.338 237.469 124.076 237.737 124.158L236.89 123.9C237.358 124.043 238.185 123.747 238.74 123.238L238.776 123.205C239.33 122.697 240.081 121.758 240.458 121.103L241.415 119.437C241.871 118.651 242.345 117.875 242.835 117.11L243.541 116.018C243.95 115.385 244.687 114.419 245.19 113.856L245.501 113.509C246.003 112.948 246.933 112.182 247.577 111.799L248.092 111.493C248.737 111.11 249.848 110.639 250.569 110.442L250.599 110.434C251.322 110.236 252.513 110.137 253.254 110.213L252.82 110.169C253.564 110.244 254.744 110.494 255.457 110.726L255.799 110.838C256.512 111.07 257.559 111.646 258.139 112.127L258.202 112.179C258.782 112.659 259.634 113.523 260.105 114.107L260.162 114.178C260.634 114.762 261.346 115.749 261.754 116.38L261.836 116.508C262.244 117.14 262.843 118.198 263.176 118.874L263.197 118.918C263.603 119.731 264.028 120.533 264.473 121.325L264.522 121.411C264.895 122.066 265.595 123.053 266.092 123.622L265.679 123.148C266.173 123.715 267.168 124.289 267.902 124.432L266.574 124.174C267.307 124.317 268.117 123.862 268.384 123.16L268.181 123.695C268.447 122.992 268.746 121.817 268.851 121.069L268.988 120.084C269.092 119.337 269.104 118.123 269.015 117.377L268.971 117.008C268.882 116.26 268.614 115.077 268.373 114.366L268.1 113.561C267.859 112.85 267.302 111.783 266.856 111.175L267.234 111.69C266.698 110.958 266.17 110.221 265.648 109.479L266.028 110.022C265.598 109.407 264.787 108.517 264.212 108.03L264.642 108.394C263.951 107.807 263.265 107.216 262.583 106.62L262.861 106.864C262.297 106.369 261.296 105.703 260.619 105.373L260.715 105.42C260.04 105.09 258.924 104.605 258.226 104.337L258.675 104.509C257.975 104.241 256.814 103.899 256.081 103.745L256.737 103.882C256.004 103.729 254.806 103.595 254.055 103.583L251.31 103.539C250.562 103.527 249.361 103.649 248.628 103.81L248.481 103.843C247.748 104.004 246.6 104.389 245.919 104.701L246.575 104.4C245.894 104.713 244.831 105.299 244.202 105.71L242.865 106.583C242.236 106.994 241.324 107.786 240.828 108.351L240.704 108.492C240.11 109.178 239.534 109.879 238.976 110.595L238.112 111.716C237.653 112.312 237.063 113.362 236.792 114.067L237.167 113.093C236.896 113.796 236.543 114.964 236.379 115.696L236.465 115.311C236.3 116.046 236.163 117.251 236.158 118.007L236.15 119.293C236.145 120.047 236.139 121.268 236.137 122.024L236.141 120.75Z" fill="white"/>
<path d="M974.11 106.139L1006.46 121.884C1007.3 122.289 1008.42 122.5 1009.54 122.5C1010.65 122.5 1011.77 122.289 1012.61 121.884L1044.96 106.139C1046.66 105.313 1046.66 103.962 1044.96 103.133L1012.61 87.3881C1011.77 86.9834 1010.65 86.772 1009.54 86.772C1008.43 86.772 1007.3 86.9834 1006.46 87.3881L974.11 103.133C972.409 103.962 972.409 105.31 974.11 106.139Z" fill="white"/>
<path d="M1044.96 122.269C1044.96 122.269 1039.05 119.398 1038.27 119.012C1037.49 118.625 1037.28 118.646 1036.45 119.031C1035.63 119.416 1012.59 130.632 1012.59 130.632C1011.62 131.054 1010.57 131.265 1009.52 131.25C1008.41 131.25 1007.28 131.037 1006.44 130.632C1006.44 130.632 984.014 119.73 982.962 119.205C981.823 118.651 981.496 118.651 980.458 119.147L974.068 122.249C972.367 123.075 972.367 124.428 974.068 125.255L1006.42 141C1007.26 141.405 1008.39 141.616 1009.5 141.616C1010.61 141.616 1011.73 141.405 1012.58 141L1044.92 125.259C1046.66 124.446 1046.66 123.098 1044.96 122.269Z" fill="white"/>
<path d="M1044.96 141.405C1044.96 141.405 1039.05 138.534 1038.27 138.143C1037.49 137.751 1037.28 137.777 1036.45 138.162C1035.63 138.547 1012.61 149.788 1012.61 149.788C1011.64 150.21 1010.59 150.419 1009.54 150.404C1008.43 150.404 1007.3 150.192 1006.46 149.788C1006.46 149.788 984.032 138.886 982.982 138.361C981.835 137.801 981.507 137.801 980.477 138.303L974.086 141.405C972.383 142.231 972.383 143.582 974.086 144.411L1006.43 160.156C1007.27 160.579 1008.4 160.772 1009.51 160.772C1010.62 160.772 1011.75 160.561 1012.59 160.156L1044.94 144.419C1046.66 143.582 1046.66 142.234 1044.96 141.405Z" fill="white"/>
<path fill-rule="evenodd" clip-rule="evenodd" d="M778.375 91.9835L779.337 90.3057L780.883 89.1865L782.253 88.557L841.502 88.7152L843.117 89.6155L844.835 91.1043L845.089 150.917L844.014 152.094L841.863 153.099L781.767 153.352L779.685 152.338L778.193 150.52L778.375 91.9835ZM781.572 140.702L841.804 140.661L841.975 92.1066L781.788 91.9211L781.572 140.702ZM794.193 149.388L802.194 149.46L802.232 148.311L795.564 148.25L795.63 146.999L802.178 147.027L802.231 146.161L795.676 146.106C795.676 146.106 795.66 144.727 795.677 144.561C795.694 144.396 802.238 144.727 802.238 144.727L802.221 143.861L794.26 143.893L794.193 149.388ZM831.745 149.047L839.746 149.119L839.783 147.97L833.116 147.909L833.182 146.658L839.729 146.686L839.782 145.82L833.227 145.765C833.227 145.765 833.211 144.386 833.229 144.22C833.246 144.055 839.79 144.386 839.79 144.386L839.773 143.52L831.812 143.552L831.745 149.047ZM804.789 143.921L804.748 149.263L815.271 149.313L815.279 143.943L813.298 143.916L813.355 147.956L810.716 148.006L810.663 143.954L808.87 143.893L808.909 148.056L806.337 147.976L806.265 143.905L804.789 143.921ZM817.856 143.89L817.73 149.41L819.203 149.386C819.203 149.386 819.153 143.984 819.11 143.898C819.067 143.811 817.856 143.891 817.856 143.891V143.89ZM783.813 143.94L783.767 149.414L785.287 149.379L785.284 147.229L788.612 147.272L789.914 149.111L792.028 149.127L790.34 147.299L791.777 146.299L791.71 143.731L783.813 143.94ZM821.703 143.94L821.657 149.414L823.177 149.379L823.174 147.229L826.502 147.272L827.803 149.111L829.918 149.127L828.229 147.299L829.667 146.299L829.6 143.731L821.703 143.94Z" fill="white"/>
<path fill-rule="evenodd" clip-rule="evenodd" d="M785.368 126.998L792.859 126.891L797.875 125.911L802.617 123.988L804.574 122.834L806.889 124.383L809.707 125.768L805.85 128.124L802.105 130.029L798.81 131.206L794.919 131.792L785.376 131.969L785.368 126.998ZM785.24 118.777L789.46 118.809L791.934 118.215L794.408 117.131L797.517 118.682L800.712 120.24L796.857 122.422L792.833 123.357L789.468 123.841L785.063 123.91L785.24 118.777Z" fill="white"/>
<path fill-rule="evenodd" clip-rule="evenodd" d="M785.319 113.4L790.233 113.676L794.837 115.269L799.441 117.382L803.46 119.316L807.583 122.157L815.176 127.21L820.001 129.364L824.88 131.408L827.457 131.858L838.282 131.855L838.296 126.681L829.602 126.957L824.297 125.384L818.645 122.902L814.208 119.757L809.463 116.577L804.599 113.903L799.955 111.316L794.971 109.044L791.044 108.134L785.393 108.198L785.319 113.4Z" fill="white"/>
<path fill-rule="evenodd" clip-rule="evenodd" d="M785.399 105.337L792.675 105.354L796.661 106.151L800.887 107.917L804.77 109.926L809.717 112.904L813.703 115.744L818.891 118.965L823.461 121.286L828.168 123.156L831.673 123.814L838.696 123.846L838.693 118.708L832.695 118.951L827.112 117.028L821.772 113.951L815.74 110.455L810.194 106.784L804.994 103.742L800.082 101.452L796.791 100.543L795.247 100.227L785.431 100.445L785.399 105.337Z" fill="white"/>
<path fill-rule="evenodd" clip-rule="evenodd" d="M838.711 113.135L838.79 107.628L832.618 107.694L829.74 108.248L825.959 109.391L823.01 110.846L821.9 111.469L824.988 113.022L828.081 114.719L831.482 113.739L834.093 113.25L838.711 113.135ZM838.319 105.155L838.482 99.749L831.753 99.7821L826.934 99.8145L822.494 101.027L817.813 103.209L814.207 105.873L814.233 106.558L816.501 107.909L818.974 109.64L822.273 107.753L826.018 106.459L830.76 105.407L838.319 105.155ZM785.58 145.085L785.545 146.297L789.585 146.329L789.757 145.07L785.58 145.085ZM823.469 145.085L823.435 146.297L827.475 146.329L827.647 145.07L823.469 145.085Z" fill="white"/>
<path fill-rule="evenodd" clip-rule="evenodd" d="M552.104 101.052C551.856 101.335 551.655 101.872 551.654 102.247L551.609 139.7C551.608 140.076 551.75 140.652 551.926 140.985L552.009 141.145C552.185 141.478 552.631 141.751 553.006 141.755L573.735 141.978C574.11 141.982 574.642 141.778 574.918 141.528L579.373 137.492C579.651 137.24 580.18 137.037 580.554 137.038L591.235 137.077C591.609 137.078 591.911 137.385 591.91 137.762L591.909 138.149C591.909 138.239 591.891 138.328 591.857 138.41C591.822 138.493 591.772 138.568 591.709 138.631C591.646 138.695 591.571 138.745 591.489 138.778C591.406 138.812 591.318 138.829 591.229 138.829L587.518 138.813C587.338 138.813 587.165 138.884 587.036 139.011C586.908 139.139 586.835 139.312 586.833 139.494L586.764 145.535C586.763 145.624 586.779 145.713 586.812 145.796C586.845 145.879 586.894 145.954 586.956 146.018C587.018 146.081 587.093 146.132 587.174 146.166C587.256 146.2 587.344 146.218 587.433 146.217L591.254 146.212C591.435 146.213 591.608 146.283 591.738 146.41C591.868 146.536 591.944 146.708 591.951 146.89L591.982 147.924C591.984 148.013 591.97 148.101 591.938 148.184C591.906 148.268 591.859 148.344 591.798 148.408C591.737 148.472 591.664 148.524 591.583 148.56C591.502 148.596 591.415 148.615 591.327 148.617L580.898 148.833C580.525 148.841 579.999 148.643 579.72 148.389L574.832 143.93C574.554 143.677 574.024 143.47 573.653 143.469L552.815 143.39C552.442 143.389 551.901 143.204 551.604 142.974L551.524 142.912C551.229 142.684 550.836 142.235 550.646 141.91L550.389 141.47C550.2 141.144 550.045 140.574 550.045 140.202L549.958 101.961C549.957 101.586 550.095 101.007 550.263 100.676L550.354 100.498C550.523 100.163 550.865 99.6677 551.119 99.3894L551.346 99.1408C551.6 98.8633 552.11 98.6378 552.482 98.6372L633.023 98.539C633.397 98.5386 633.931 98.7326 634.22 98.9765L634.32 99.0607C634.606 99.3028 635 99.7601 635.196 100.079L635.455 100.5C635.652 100.821 635.812 101.386 635.812 101.765L635.815 139.826C635.815 140.204 635.722 140.799 635.605 141.161L635.529 141.394C635.413 141.754 635.099 142.254 634.824 142.515L634.597 142.73C634.323 142.989 633.8 143.202 633.426 143.204L612.203 143.336C611.83 143.338 611.307 143.545 611.028 143.805L606.226 148.272C605.95 148.53 605.423 148.741 605.047 148.745L596.631 148.837C596.45 148.839 596.276 148.769 596.146 148.642C596.017 148.516 595.941 148.343 595.937 148.161L595.887 145.802C595.883 145.62 595.808 145.448 595.679 145.32C595.551 145.193 595.378 145.121 595.198 145.12L591.177 145.131C590.998 145.132 590.826 145.061 590.699 144.934C590.572 144.806 590.501 144.634 590.5 144.453L590.492 141.273C590.493 141.092 590.564 140.919 590.691 140.792C590.818 140.664 590.99 140.592 591.169 140.592L595.211 140.589C595.393 140.588 595.566 140.516 595.696 140.389C595.826 140.262 595.902 140.089 595.908 139.906L595.968 137.775C595.978 137.398 596.287 137.093 596.66 137.093L605.343 137.092C605.715 137.092 606.243 137.294 606.522 137.544L610.927 141.497C611.206 141.747 611.734 141.949 612.105 141.949L632.459 141.918C632.83 141.918 633.302 141.663 633.512 141.351L633.636 141.166C633.846 140.853 634.019 140.298 634.02 139.916L634.199 102.366C634.201 101.989 634.028 101.436 633.809 101.127L633.594 100.822C633.376 100.515 632.901 100.267 632.523 100.267L553.377 100.37C553.003 100.37 552.498 100.601 552.25 100.884L552.104 101.052Z" fill="white"/>
<path fill-rule="evenodd" clip-rule="evenodd" d="M570.042 132.745C569.67 132.755 569.211 132.503 569.017 132.183L557.077 112.438C556.883 112.117 556.457 111.721 556.12 111.549L556.348 111.665C556.013 111.495 555.442 111.359 555.064 111.36L554.864 111.36C554.776 111.361 554.688 111.344 554.606 111.31C554.524 111.276 554.45 111.226 554.388 111.163C554.326 111.1 554.276 111.025 554.243 110.942C554.21 110.859 554.194 110.771 554.195 110.682L554.193 110.861C554.196 110.68 554.27 110.506 554.399 110.379C554.528 110.251 554.701 110.18 554.882 110.179L568.66 110.147C568.748 110.146 568.835 110.163 568.916 110.197C568.997 110.231 569.07 110.281 569.131 110.345C569.192 110.408 569.24 110.484 569.271 110.566C569.302 110.649 569.316 110.737 569.313 110.826L569.324 110.549C569.309 110.925 568.996 111.25 568.619 111.275L567.115 111.375C566.741 111.401 566.193 111.604 565.892 111.829L566.382 111.462C566.081 111.687 565.719 112.154 565.577 112.497L565.749 112.082C565.606 112.428 565.643 112.975 565.831 113.301L572.325 124.581C572.514 124.908 572.811 124.909 572.992 124.577L578.689 114.142C578.869 113.813 579.109 113.256 579.226 112.898L579.149 113.132C579.266 112.774 579.205 112.222 579.013 111.898L579.191 112.198C578.999 111.875 578.54 111.598 578.168 111.58L576.404 111.496C576.031 111.478 575.711 111.161 575.69 110.78L575.699 110.948C575.694 110.859 575.706 110.77 575.735 110.685C575.764 110.601 575.81 110.523 575.869 110.457C575.928 110.391 576 110.337 576.081 110.299C576.161 110.261 576.248 110.24 576.337 110.236L580.73 110.048C581.103 110.032 581.557 109.756 581.745 109.429L582.261 108.53C582.449 108.204 582.838 107.745 583.125 107.51L584.464 106.414C584.753 106.177 585.271 105.876 585.62 105.741L587.89 104.864C588.238 104.729 588.818 104.574 589.19 104.517L591.475 104.168C591.921 104.106 592.37 104.074 592.82 104.072L595.299 104.094C595.75 104.101 596.2 104.12 596.65 104.152L598.558 104.297C598.93 104.325 599.524 104.438 599.879 104.547L601.633 105.087C601.99 105.198 602.58 105.286 602.958 105.285L604.995 105.28C605.37 105.279 605.823 105.013 606.007 104.684L606.172 104.39C606.356 104.062 606.808 103.777 607.184 103.754L607.934 103.708C608.022 103.701 608.109 103.713 608.192 103.742C608.274 103.771 608.35 103.817 608.414 103.878C608.478 103.938 608.528 104.011 608.563 104.092C608.597 104.173 608.615 104.261 608.614 104.349L608.621 109.142C608.622 109.323 608.694 109.496 608.82 109.625C608.947 109.753 609.118 109.826 609.298 109.829L628.947 109.954C629.127 109.956 629.298 110.029 629.424 110.158C629.55 110.287 629.62 110.46 629.619 110.641L629.589 116.069C629.587 116.446 629.285 116.717 628.916 116.675L628.9 116.673C628.53 116.631 628.133 116.31 628.012 115.952L627.944 115.752C627.792 115.325 627.613 114.909 627.405 114.507L627.212 114.143C627.035 113.811 626.653 113.354 626.36 113.125L625.728 112.629C625.371 112.355 625.001 112.1 624.617 111.865L624.463 111.773C624.143 111.582 623.581 111.421 623.209 111.415L620.048 111.36C619.96 111.358 619.872 111.374 619.791 111.407C619.709 111.44 619.634 111.49 619.572 111.552C619.509 111.615 619.459 111.689 619.426 111.771C619.392 111.853 619.375 111.942 619.376 112.03L619.449 129.681C619.451 130.058 619.706 130.532 620.016 130.737L620.057 130.765C620.368 130.971 620.914 131.225 621.271 131.33L621.088 131.276C621.447 131.382 622.038 131.468 622.417 131.469L623.428 131.469C623.803 131.469 624.107 131.776 624.107 132.151V131.81C624.107 131.991 624.036 132.165 623.91 132.295C623.783 132.424 623.611 132.498 623.431 132.5L607.934 132.71C607.561 132.715 607.286 132.415 607.321 132.04L607.293 132.345C607.328 131.97 607.659 131.643 608.031 131.616L609.514 131.506C609.887 131.479 610.455 131.312 610.783 131.133L610.94 131.048C611.269 130.869 611.62 130.433 611.729 130.068C611.837 129.706 611.921 129.106 611.918 128.73L611.76 111.997C611.759 111.817 611.686 111.644 611.558 111.518C611.431 111.391 611.259 111.321 611.08 111.322L609.32 111.34C608.948 111.344 608.623 111.652 608.595 112.026L608.575 112.292C608.547 112.667 608.22 112.977 607.848 112.984L607.253 112.994C606.88 113 606.437 112.734 606.265 112.403L605.449 110.83C605.277 110.497 604.913 110.024 604.635 109.77L602.603 107.915C602.326 107.662 601.832 107.315 601.502 107.141L600.702 106.719C600.301 106.512 599.893 106.319 599.477 106.142L598.525 105.746C598.18 105.601 597.598 105.446 597.232 105.399L596.146 105.261C595.7 105.21 595.252 105.185 594.803 105.186L593.306 105.207C592.933 105.213 592.345 105.312 591.99 105.431L591.015 105.756C590.59 105.903 590.175 106.077 589.771 106.275L589.439 106.443C589.106 106.612 588.681 107.013 588.491 107.337L588.483 107.351C588.292 107.676 587.987 108.206 587.805 108.529L588.054 108.089C587.87 108.415 587.733 108.98 587.748 109.358L587.749 109.391C587.765 109.766 587.909 110.345 588.072 110.685L588.062 110.664C588.225 111.003 588.605 111.453 588.909 111.669L589.824 112.318C590.128 112.533 590.663 112.811 591.013 112.936L593.402 113.787C593.754 113.912 594.329 114.106 594.688 114.221L597.316 115.061C597.674 115.175 598.254 115.362 598.606 115.475L599.946 115.907C600.301 116.022 600.878 116.202 601.236 116.311L601.022 116.246C601.38 116.354 601.668 116.138 601.665 115.761L601.626 110.644C601.624 110.556 601.641 110.468 601.674 110.387C601.708 110.305 601.758 110.231 601.821 110.17C601.884 110.109 601.959 110.061 602.041 110.031C602.123 110 602.211 109.987 602.299 109.992L602.821 110.014C603.195 110.03 603.656 110.302 603.853 110.628L604.723 112.063C604.918 112.387 604.874 112.873 604.619 113.154L604.597 113.178C604.344 113.457 604.059 113.976 603.96 114.341L603.669 115.408C603.57 115.771 603.218 116.198 602.883 116.363L603.344 116.136C603.009 116.3 602.58 116.694 602.51 116.808L602.738 116.433C602.612 116.641 602.788 116.927 603.136 117.076L604.835 117.802C605.249 117.986 605.651 118.198 606.036 118.436L607.01 119.056C607.328 119.259 607.78 119.652 608.026 119.943L608.588 120.605C608.876 120.954 609.14 121.322 609.379 121.707L609.494 121.897C609.687 122.218 609.857 122.786 609.872 123.163L609.927 124.477C609.942 124.933 609.94 125.389 609.919 125.844L609.906 126.088C609.886 126.465 609.693 127.015 609.471 127.322L608.997 127.977C608.777 128.281 608.37 128.727 608.085 128.974L607.012 129.907C606.728 130.154 606.233 130.507 605.909 130.693L604.521 131.492C604.195 131.679 603.638 131.899 603.27 131.985L600.418 132.652C599.976 132.753 599.532 132.84 599.085 132.913L598.306 133.037C597.86 133.102 597.41 133.14 596.96 133.151L592.667 133.202C592.295 133.206 591.694 133.154 591.33 133.085L589.601 132.76C589.158 132.677 588.716 132.592 588.274 132.505L586.318 132.122C585.876 132.042 585.428 131.994 584.979 131.977L584.176 131.959C583.804 131.951 583.238 132.093 582.911 132.278L582.904 132.282C582.578 132.467 582.282 132.919 582.249 133.221L582.314 132.616C582.278 132.95 581.947 133.236 581.575 133.255L581.193 133.274C581.105 133.279 581.018 133.266 580.936 133.236C580.854 133.206 580.779 133.159 580.716 133.098C580.653 133.037 580.603 132.964 580.569 132.883C580.535 132.802 580.518 132.715 580.519 132.627L580.536 123.495C580.537 123.314 580.608 123.14 580.733 123.01C580.859 122.88 581.03 122.803 581.21 122.797L581.699 122.785C582.071 122.775 582.466 123.059 582.58 123.414L582.979 124.658C583.094 125.015 583.346 125.561 583.545 125.882L584.128 126.82C584.327 127.138 584.701 127.613 584.966 127.883L585.869 128.797C586.133 129.065 586.607 129.442 586.924 129.636L588.586 130.655C588.904 130.851 589.457 131.071 589.824 131.149L591.891 131.586C592.256 131.663 592.853 131.722 593.232 131.717L596.346 131.68C596.721 131.675 597.32 131.609 597.687 131.532L599.503 131.15C599.869 131.074 600.372 130.791 600.632 130.514L601.778 129.293C602.036 129.018 602.33 128.505 602.437 128.141L602.543 127.781C602.649 127.42 602.634 126.836 602.512 126.484L602.33 125.961C602.206 125.606 601.875 125.121 601.587 124.876L601.509 124.809C601.222 124.565 600.711 124.247 600.367 124.098L599.012 123.512C598.596 123.336 598.174 123.172 597.748 123.023L595.6 122.286C595.247 122.165 594.675 121.971 594.319 121.85L592.397 121.199C591.969 121.057 591.538 120.924 591.103 120.802L589.848 120.455C589.415 120.329 588.991 120.176 588.577 119.996L587.807 119.648C587.395 119.46 586.986 119.266 586.579 119.067L585.253 118.41C584.851 118.203 584.463 117.97 584.092 117.711L583.511 117.293C583.206 117.073 582.756 116.668 582.506 116.386L582.641 116.538C582.39 116.256 582.069 115.75 581.92 115.398L582.138 115.911C581.99 115.563 582.055 115.04 582.282 114.743L582.042 115.056C582.269 114.759 582.68 114.32 582.968 114.071L583.624 113.502C583.908 113.256 584.423 112.953 584.776 112.825L584.625 112.88C585.05 112.729 585.481 112.593 585.917 112.474C586.279 112.378 586.549 111.991 586.522 111.617L586.514 111.495C586.487 111.119 586.162 110.798 585.789 110.78L585.714 110.776C585.341 110.758 584.903 111.017 584.811 111.205L585.039 110.743C584.912 110.998 584.514 111.262 584.145 111.333L583.863 111.387C583.495 111.458 582.967 111.714 582.685 111.957L582.485 112.13C582.202 112.375 581.807 112.826 581.598 113.143L581.464 113.347C581.217 113.728 580.984 114.118 580.765 114.516L571.26 132.12C571.081 132.451 570.634 132.728 570.262 132.738L570.042 132.744V132.745Z" fill="white"/>
<path fill-rule="evenodd" clip-rule="evenodd" d="M453.331 151.124L452.873 150.204L452.257 149.014L452.237 91.9804L452.619 90.318L453.747 88.5689L455.394 87.6338L514.985 87.6724L516.734 88.5181L518.406 89.9405L518.943 91.3042L518.881 148.835L518.108 150.565L516.991 151.841L515.17 152.348L456.527 152.299L454.62 151.902L453.331 151.124ZM455.032 148.568L455.461 149.322L456.097 149.824L515.195 149.685L515.693 149.213L516.208 148.356L516.153 91.5899L515.616 90.838L515.078 90.4186L455.942 90.4721L455.249 90.8878L454.831 91.667L455.032 148.568Z" fill="white"/>
<path fill-rule="evenodd" clip-rule="evenodd" d="M460.39 105.623L477.313 105.59L481.281 106.491L484.253 108.101L486.039 110.473L486.865 111.891L487.226 114.09L487.363 116.833L486.929 119.672L485.456 121.68L483.583 123.205L481.866 124.485L479.873 124.865L479.699 125.385L488.495 138.67L479.389 138.7L472.265 126.193L467.895 126.348L467.813 138.712L460.337 138.695L460.39 105.623ZM467.736 111.834L467.87 120.436L475.788 120.348C475.788 120.348 477.54 119.788 477.643 119.666C477.746 119.544 479.086 118.075 479.086 118.075L479.429 116.45L479.1 114.282L477.764 112.535L476.117 111.853L467.736 111.834ZM491.032 118.468L493.523 116.108L496.392 114.71L500.24 114.394L504.329 114.844L507.473 116.975L509.344 119.441L510.272 121.727C510.272 121.727 511.114 124.677 511.114 124.816C511.114 124.955 511.079 129.059 511.079 129.059L495.728 129.124L495.9 130.561L497.034 132.328L498.7 133.505L501.971 133.614L504.084 132.373L504.96 130.957L511.217 133.085L509.292 135.873L507.177 137.673L504.282 139.245L500.78 139.452L496.59 139.311L493.156 137.563L490.678 135.098L489.178 131.651L488.589 128.199L488.61 124.672L489.641 121.249L491.032 118.468ZM495.848 124.209L504.006 124.447L504.007 123.079L503.371 121.451L502.22 120.291L499.506 119.928L497.427 120.627L496.397 122.095L495.848 124.209ZM464.476 146.665H463.589C463.059 145.82 462.729 145.301 462.601 145.108C462.483 144.929 462.348 144.762 462.196 144.611C462.054 144.473 461.92 144.386 461.796 144.35C461.671 144.313 461.506 144.295 461.3 144.295H460.486V146.665H459.781V141.294H462.139C462.461 141.294 462.731 141.315 462.95 141.357C463.159 141.394 463.356 141.484 463.523 141.618C463.69 141.751 463.82 141.925 463.904 142.122C463.992 142.324 464.037 142.543 464.036 142.764C464.036 143.169 463.909 143.495 463.655 143.742C463.4 143.988 463.029 144.144 462.543 144.21V144.225C462.899 144.384 463.233 144.71 463.546 145.203L464.476 146.665ZM460.486 143.657H461.997C462.303 143.657 462.544 143.631 462.723 143.579C462.896 143.529 463.047 143.421 463.15 143.273C463.255 143.124 463.311 142.946 463.309 142.764C463.309 142.519 463.221 142.312 463.044 142.14C462.867 141.97 462.575 141.884 462.168 141.884H460.486V143.657V143.657ZM468.401 146.665H467.714C467.651 146.543 467.606 146.383 467.579 146.185C467.141 146.566 466.667 146.756 466.158 146.756C465.751 146.756 465.43 146.654 465.196 146.448C464.96 146.244 464.843 145.972 464.843 145.635C464.843 145.313 464.956 145.047 465.183 144.839C465.409 144.63 465.803 144.491 466.362 144.423L466.973 144.331C467.2 144.295 467.388 144.249 467.536 144.196C467.536 143.998 467.53 143.858 467.518 143.776C467.501 143.684 467.465 143.597 467.41 143.522C467.351 143.434 467.256 143.363 467.125 143.309C466.994 143.256 466.819 143.229 466.598 143.229C466.317 143.229 466.095 143.281 465.931 143.386C465.768 143.491 465.656 143.686 465.595 143.972L464.956 143.888C465.026 143.49 465.206 143.191 465.497 142.991C465.788 142.79 466.188 142.69 466.696 142.69C467.159 142.69 467.499 142.759 467.716 142.897C467.932 143.035 468.066 143.202 468.115 143.397C468.165 143.593 468.19 143.844 468.19 144.152V145.038C468.19 145.578 468.2 145.94 468.221 146.125C468.244 146.315 468.305 146.499 468.401 146.665ZM467.536 144.954V144.716C467.194 144.831 466.776 144.922 466.282 144.989C465.788 145.056 465.541 145.267 465.541 145.621C465.541 145.799 465.607 145.946 465.741 146.062C465.874 146.178 466.065 146.236 466.315 146.236C466.637 146.236 466.921 146.139 467.167 145.945C467.413 145.75 467.536 145.42 467.536 144.954ZM472.355 145.32C472.27 145.816 472.076 146.179 471.773 146.41C471.478 146.638 471.116 146.76 470.744 146.756C470.185 146.756 469.753 146.571 469.447 146.201C469.142 145.831 468.989 145.341 468.989 144.73C468.989 144.225 469.077 143.82 469.253 143.516C469.428 143.212 469.648 142.998 469.913 142.875C470.176 142.752 470.454 142.69 470.745 142.69C471.142 142.69 471.482 142.794 471.764 143.002C472.046 143.209 472.22 143.514 472.286 143.917L471.653 144.016C471.588 143.755 471.482 143.558 471.335 143.426C471.189 143.294 471.002 143.228 470.774 143.228C470.408 143.228 470.131 143.359 469.941 143.62C469.753 143.882 469.658 144.247 469.658 144.716C469.658 145.195 469.751 145.564 469.936 145.824C470.122 146.084 470.389 146.214 470.737 146.214C471.018 146.214 471.24 146.133 471.4 145.97C471.562 145.808 471.663 145.565 471.704 145.24L472.355 145.32ZM476.112 146.665H475.309L474.026 144.676L473.565 145.119V146.665H472.911V141.294H473.565V144.353L475.113 142.778H475.963L474.488 144.218L476.112 146.665ZM482.777 146.665H478.798V141.294H482.654V141.932H479.503V143.573H482.45V144.21H479.503V146.027H482.777V146.665ZM486.037 146.665L485.034 145.126L484.02 146.665H483.224L484.638 144.639L483.337 142.778H484.147C484.675 143.582 484.964 144.03 485.012 144.122L485.957 142.778H486.739L485.405 144.603L486.844 146.665H486.037ZM488.897 146.658C488.703 146.696 488.54 146.716 488.407 146.716C488.121 146.716 487.912 146.665 487.781 146.564C487.655 146.471 487.57 146.332 487.542 146.177C487.512 146.021 487.498 145.804 487.498 145.525V143.287H487.022V142.778H487.498V141.811L488.152 141.412V142.778H488.806V143.287H488.152V145.562C488.152 145.758 488.172 145.896 488.212 145.978C488.252 146.06 488.353 146.101 488.515 146.101C488.61 146.101 488.707 146.091 488.806 146.071L488.897 146.658ZM492.811 144.888H489.922C489.949 145.318 490.07 145.646 490.287 145.874C490.504 146.101 490.775 146.214 491.099 146.214C491.349 146.214 491.559 146.148 491.728 146.014C491.898 145.881 492.027 145.68 492.117 145.412L492.789 145.496C492.68 145.902 492.48 146.213 492.19 146.43C491.899 146.648 491.536 146.756 491.099 146.756C490.52 146.756 490.068 146.577 489.742 146.22C489.416 145.862 489.253 145.373 489.253 144.753C489.253 144.139 489.411 143.643 489.728 143.262C490.044 142.88 490.489 142.69 491.063 142.69C491.344 142.69 491.615 142.752 491.875 142.877C492.136 143.002 492.357 143.213 492.538 143.512C492.72 143.812 492.811 144.27 492.811 144.888ZM492.139 144.346C492.112 143.95 491.991 143.665 491.773 143.491C491.557 143.316 491.32 143.229 491.063 143.229C490.755 143.229 490.502 143.332 490.303 143.54C490.105 143.748 489.99 144.016 489.958 144.346H492.139ZM496.75 146.665H496.093V144.302C496.093 143.904 496.022 143.63 495.88 143.481C495.738 143.332 495.542 143.258 495.29 143.258C495.096 143.258 494.912 143.306 494.739 143.401C494.573 143.488 494.443 143.63 494.37 143.804C494.297 143.977 494.261 144.223 494.261 144.54V146.665H493.607V142.778H494.196V143.327H494.21C494.348 143.115 494.518 142.955 494.721 142.849C494.923 142.743 495.157 142.69 495.424 142.69C495.628 142.69 495.829 142.727 496.027 142.8C496.226 142.873 496.382 142.983 496.494 143.13C496.607 143.276 496.678 143.433 496.707 143.599C496.736 143.765 496.75 143.989 496.75 144.272V146.665ZM499.89 143.866C499.861 143.654 499.776 143.494 499.634 143.388C499.492 143.282 499.296 143.229 499.043 143.229C498.794 143.229 498.592 143.271 498.439 143.357C498.285 143.442 498.208 143.567 498.208 143.731C498.208 143.884 498.269 143.994 498.391 144.06C498.514 144.126 498.755 144.207 499.116 144.302C499.523 144.407 499.828 144.5 500.03 144.58C500.233 144.661 500.39 144.774 500.503 144.919C500.615 145.064 500.672 145.267 500.672 145.525C500.672 145.872 500.531 146.164 500.25 146.401C499.969 146.638 499.594 146.756 499.124 146.756C498.634 146.756 498.252 146.652 497.977 146.443C497.702 146.234 497.533 145.921 497.47 145.504L498.121 145.405C498.154 145.676 498.254 145.878 498.42 146.013C498.586 146.147 498.818 146.214 499.116 146.214C499.402 146.214 499.621 146.154 499.774 146.033C499.927 145.912 500.003 145.765 500.003 145.592C500.003 145.474 499.968 145.38 499.898 145.309C499.823 145.236 499.733 145.181 499.634 145.15C499.529 145.114 499.292 145.052 498.923 144.961C498.376 144.829 498.014 144.669 497.839 144.482C497.666 144.301 497.571 144.058 497.575 143.807C497.575 143.483 497.704 143.215 497.961 143.005C498.217 142.795 498.563 142.69 498.996 142.69C499.457 142.69 499.815 142.781 500.07 142.963C500.326 143.145 500.479 143.417 500.53 143.778L499.891 143.866H499.89ZM502.114 146.665H501.46V142.778H502.114V146.665ZM502.114 142.042H501.46V141.294H502.114V142.042ZM504.684 142.69C505.205 142.69 505.636 142.861 505.979 143.203C506.322 143.545 506.494 144.031 506.494 144.661C506.494 145.425 506.308 145.966 505.937 146.282C505.567 146.598 505.149 146.756 504.684 146.756C504.197 146.756 503.774 146.594 503.415 146.269C503.057 145.944 502.877 145.429 502.877 144.723C502.877 144.039 503.051 143.53 503.397 143.194C503.744 142.858 504.172 142.69 504.684 142.69ZM504.684 146.214C505.057 146.214 505.34 146.075 505.534 145.796C505.728 145.518 505.825 145.152 505.825 144.697C505.825 144.211 505.715 143.845 505.496 143.599C505.277 143.352 505.006 143.229 504.684 143.229C504.352 143.229 504.079 143.354 503.866 143.604C503.653 143.854 503.546 144.227 503.546 144.723C503.546 145.216 503.655 145.588 503.871 145.838C504.088 146.089 504.359 146.214 504.684 146.214ZM509.746 146.665V144.302C509.746 143.904 509.675 143.63 509.534 143.481C509.391 143.332 509.195 143.258 508.943 143.258C508.75 143.258 508.561 143.307 508.392 143.401C508.227 143.488 508.096 143.63 508.024 143.804C507.951 143.977 507.914 144.223 507.914 144.54V146.665H507.26V142.778H507.849V143.327H507.864C508.002 143.115 508.172 142.955 508.374 142.849C508.577 142.743 508.811 142.69 509.077 142.69C509.281 142.69 509.482 142.727 509.681 142.8C509.879 142.873 510.035 142.983 510.148 143.13C510.256 143.266 510.329 143.427 510.36 143.599C510.389 143.765 510.404 143.989 510.404 144.272V146.665H509.746Z" fill="white"/>
<path fill-rule="evenodd" clip-rule="evenodd" d="M667.876 120.764H672.067V131.068H678.607V134.434H667.876V120.764ZM688.856 132.178H684.083L683.427 134.434H679.144L684.241 120.764H688.81L693.907 134.434H689.522L688.856 132.178ZM687.978 129.222L686.479 124.308L684.989 129.222H687.978ZM695.304 120.765H701.529C702.757 120.765 703.748 120.932 704.503 121.268C705.259 121.604 705.883 122.085 706.377 122.713C706.87 123.341 707.228 124.072 707.45 124.905C707.672 125.737 707.783 126.62 707.783 127.553C707.783 129.013 707.618 130.146 707.288 130.951C706.958 131.756 706.5 132.431 705.914 132.975C705.328 133.519 704.699 133.881 704.027 134.061C703.108 134.31 702.276 134.434 701.529 134.434H695.304V120.765ZM699.494 123.86V131.329H700.521C701.397 131.329 702.02 131.231 702.39 131.035C702.76 130.84 703.049 130.498 703.259 130.01C703.469 129.522 703.574 128.731 703.574 127.636C703.574 126.188 703.339 125.197 702.871 124.662C702.402 124.127 701.625 123.86 700.54 123.86H699.494ZM709.254 129.912L713.24 129.66C713.327 130.313 713.503 130.81 713.768 131.152C714.2 131.705 714.816 131.982 715.618 131.982C716.216 131.982 716.677 131.84 717.001 131.557C717.325 131.275 717.486 130.947 717.486 130.574C717.486 130.219 717.332 129.902 717.024 129.623C716.715 129.343 716 129.079 714.878 128.83C713.04 128.414 711.73 127.861 710.947 127.17C710.157 126.48 709.763 125.601 709.763 124.532C709.763 123.829 709.964 123.165 710.368 122.541C710.772 121.916 711.38 121.425 712.191 121.068C713.002 120.71 714.113 120.531 715.525 120.531C717.258 120.531 718.58 120.856 719.489 121.506C720.399 122.155 720.94 123.189 721.113 124.606L717.163 124.839C717.058 124.224 716.837 123.776 716.501 123.497C716.165 123.217 715.701 123.077 715.109 123.077C714.622 123.077 714.255 123.181 714.008 123.389C713.761 123.597 713.638 123.851 713.638 124.149C713.638 124.367 713.74 124.563 713.943 124.736C714.141 124.917 714.61 125.085 715.35 125.24C717.181 125.638 718.493 126.041 719.286 126.448C720.078 126.855 720.655 127.36 721.016 127.963C721.376 128.566 721.557 129.241 721.557 129.986C721.557 130.863 721.316 131.671 720.835 132.411C720.354 133.151 719.682 133.712 718.819 134.094C717.955 134.476 716.867 134.667 715.553 134.667C713.247 134.667 711.649 134.22 710.761 133.325C709.873 132.429 709.371 131.292 709.254 129.912ZM723.647 120.764H730.613C732.13 120.764 733.266 121.128 734.022 121.856C734.777 122.583 735.155 123.618 735.155 124.961C735.155 126.341 734.743 127.419 733.92 128.196C733.097 128.973 731.84 129.362 730.151 129.362H727.856V134.434H723.647V120.764ZM727.856 126.592H728.883C729.691 126.592 730.258 126.451 730.585 126.168C730.912 125.885 731.075 125.523 731.075 125.082C731.075 124.653 730.933 124.289 730.65 123.991C730.366 123.692 729.833 123.543 729.05 123.543H727.856V126.592ZM744.081 132.178H739.308L738.652 134.434H734.369L739.466 120.764H744.035L749.132 134.434H744.748L744.081 132.178ZM743.203 129.222L741.704 124.308L740.215 129.222H743.203Z" fill="white"/>
<path fill-rule="evenodd" clip-rule="evenodd" d="M879.601 150.969L884.364 138.335L887.508 138.282L892.161 150.323L896.915 138.378L900.062 138.399L904.5 150.284L908.545 145.29L904.823 138.431L908.252 138.443L910.613 142.62L913.735 138.44L916.805 138.482L913.157 144.693L916.805 151.114H913.612L910.586 146.729L907.983 150.966L901.828 150.948L900.607 147.917L896.364 147.816L895.026 151.373L889.206 151.114L888.2 147.769L883.691 147.854L882.782 150.871L879.601 150.969ZM884.08 145.93L887.688 145.919L885.9 141.173L884.08 145.93ZM896.555 145.828H900.066L898.572 141.068L896.555 145.828ZM898.572 136.443C887.549 136.443 878.612 127.37 878.612 116.178C878.612 104.986 887.549 95.9122 898.572 95.9122C909.596 95.9122 918.532 104.985 918.532 116.178C918.532 127.37 909.596 136.443 898.572 136.443ZM886.478 128.584L888.881 130.838L891.957 132.269L894.666 133.255L898.438 133.691L902.058 133.255L905.057 132.242L908.316 130.51L910.398 128.633L909.561 128.04L907.734 126.382L905.862 124.325L904.736 122.445L903.42 120.431L902.058 118.362L900.643 116.611L898.438 115.955L896.051 116.611L894.666 118.362L893.018 121.229L891.134 124.147L889.062 126.66L886.478 128.584ZM882.417 120.75C882.415 121.504 882.65 122.68 882.941 123.369L882.636 122.646C882.928 123.338 883.742 124.076 884.01 124.158L883.164 123.9C883.631 124.043 884.458 123.747 885.011 123.238L885.047 123.205C885.6 122.697 886.35 121.758 886.726 121.103L887.682 119.437C888.138 118.651 888.61 117.875 889.099 117.11L889.804 116.018C890.212 115.385 890.948 114.419 891.451 113.856L891.761 113.509C892.262 112.948 893.191 112.182 893.834 111.799L894.348 111.493C894.992 111.11 896.101 110.639 896.82 110.442L896.851 110.434C897.573 110.236 898.761 110.137 899.501 110.213L899.068 110.169C899.81 110.244 900.988 110.494 901.701 110.726L902.042 110.838C902.754 111.07 903.799 111.646 904.378 112.127L904.441 112.179C905.019 112.659 905.87 113.523 906.341 114.107L906.398 114.178C906.868 114.762 907.58 115.749 907.987 116.38L908.069 116.508C908.476 117.14 909.074 118.198 909.406 118.874L909.428 118.918C909.832 119.731 910.257 120.533 910.701 121.325L910.75 121.411C911.122 122.066 911.821 123.053 912.318 123.622L911.905 123.148C912.398 123.715 913.392 124.289 914.124 124.432L912.799 124.174C913.531 124.317 914.34 123.862 914.605 123.16L914.402 123.695C914.668 122.992 914.967 121.817 915.072 121.069L915.209 120.084C915.312 119.337 915.324 118.123 915.236 117.377L915.192 117.008C915.103 116.26 914.836 115.077 914.595 114.366L914.322 113.561C914.081 112.85 913.526 111.783 913.08 111.175L913.458 111.69C912.923 110.958 912.395 110.221 911.874 109.479L912.254 110.022C911.825 109.407 911.014 108.517 910.441 108.03L910.87 108.394C910.181 107.807 909.495 107.216 908.814 106.62L909.092 106.864C908.529 106.369 907.53 105.703 906.853 105.373L906.949 105.42C906.276 105.09 905.161 104.605 904.464 104.337L904.913 104.509C904.214 104.241 903.055 103.899 902.323 103.745L902.978 103.882C902.247 103.729 901.05 103.595 900.301 103.583L897.561 103.539C896.813 103.527 895.615 103.649 894.883 103.81L894.736 103.843C894.004 104.004 892.858 104.389 892.179 104.701L892.833 104.4C892.153 104.713 891.092 105.299 890.465 105.71L889.13 106.583C888.502 106.994 887.591 107.786 887.096 108.351L886.973 108.492C886.379 109.178 885.804 109.879 885.247 110.595L884.385 111.716C883.926 112.312 883.337 113.362 883.067 114.067L883.441 113.093C883.171 113.796 882.818 114.964 882.654 115.696L882.74 115.311C882.576 116.046 882.439 117.251 882.434 118.007L882.426 119.293C882.421 120.047 882.415 121.268 882.413 122.024L882.417 120.75Z" fill="white"/>
</svg>
